<mxfile host="app.diagrams.net" modified="2022-08-08T06:19:45.810Z" agent="5.0 (Windows NT 10.0; Win64; x64) AppleWebKit/537.36 (KHTML, like Gecko) Chrome/103.0.5060.134 Safari/537.36 Edg/103.0.1264.77" etag="k4BfOC0t4WBTtCuJO02A" version="16.0.0" type="github" pages="3">
  <diagram name="Page-1" id="bfe91b75-5d2c-26a0-9c1d-138518896778">
    <mxGraphModel dx="1422" dy="762" grid="1" gridSize="10" guides="1" tooltips="1" connect="1" arrows="1" fold="1" page="1" pageScale="1" pageWidth="1100" pageHeight="850" background="none" math="0" shadow="0">
      <root>
        <mxCell id="0" />
        <mxCell id="1" parent="0" />
        <mxCell id="7c3789c024ecab99-82" value="Campus wing D" style="rounded=1;whiteSpace=wrap;html=1;shadow=0;comic=0;strokeColor=#036897;strokeWidth=2;fillColor=none;fontFamily=Verdana;fontSize=28;fontColor=#6881B3;align=center;arcSize=11;verticalAlign=top;" parent="1" vertex="1">
          <mxGeometry x="78" y="1355" width="1065" height="420" as="geometry" />
        </mxCell>
        <mxCell id="7c3789c024ecab99-81" value="Campus wing C" style="rounded=1;whiteSpace=wrap;html=1;shadow=0;comic=0;strokeColor=#036897;strokeWidth=2;fillColor=none;fontFamily=Verdana;fontSize=28;fontColor=#6881B3;align=center;arcSize=11;verticalAlign=top;" parent="1" vertex="1">
          <mxGeometry x="75" y="900" width="1065" height="420" as="geometry" />
        </mxCell>
        <mxCell id="7c3789c024ecab99-79" value="Campus wing B" style="rounded=1;whiteSpace=wrap;html=1;shadow=0;comic=0;strokeColor=#036897;strokeWidth=2;fillColor=none;fontFamily=Verdana;fontSize=28;fontColor=#6881B3;align=center;arcSize=11;verticalAlign=top;" parent="1" vertex="1">
          <mxGeometry x="78" y="462" width="1065" height="420" as="geometry" />
        </mxCell>
        <mxCell id="7c3789c024ecab99-78" value="Campus wing A" style="rounded=1;whiteSpace=wrap;html=1;shadow=0;comic=0;strokeColor=#036897;strokeWidth=2;fillColor=none;fontFamily=Verdana;fontSize=28;fontColor=#6881B3;align=center;arcSize=11;verticalAlign=top;" parent="1" vertex="1">
          <mxGeometry x="75" y="20" width="1065" height="420" as="geometry" />
        </mxCell>
        <mxCell id="7c3789c024ecab99-55" style="edgeStyle=none;html=1;labelBackgroundColor=none;endArrow=none;endFill=0;strokeWidth=2;fontFamily=Verdana;fontSize=28;fontColor=#6881B3;" parent="1" source="7c3789c024ecab99-8" target="7c3789c024ecab99-54" edge="1">
          <mxGeometry relative="1" as="geometry">
            <mxPoint x="1660" y="837.0000000000002" as="targetPoint" />
          </mxGeometry>
        </mxCell>
        <mxCell id="7c3789c024ecab99-8" value="" style="fontColor=#0066CC;verticalAlign=top;verticalLabelPosition=bottom;labelPosition=center;align=center;html=1;fillColor=#CCCCCC;strokeColor=#6881B3;gradientColor=none;gradientDirection=north;strokeWidth=2;shape=mxgraph.networks.firewall;rounded=0;shadow=0;comic=0;" parent="1" vertex="1">
          <mxGeometry x="1490" y="847" width="100" height="100" as="geometry" />
        </mxCell>
        <mxCell id="7c3789c024ecab99-18" style="edgeStyle=orthogonalEdgeStyle;html=1;labelBackgroundColor=none;endArrow=none;endFill=0;strokeWidth=2;fontFamily=Verdana;fontSize=15;fontColor=#036897;" parent="1" source="7c3789c024ecab99-9" target="7c3789c024ecab99-10" edge="1">
          <mxGeometry relative="1" as="geometry">
            <mxPoint x="1110" y="310" as="targetPoint" />
            <Array as="points">
              <mxPoint x="1370" y="192" />
            </Array>
          </mxGeometry>
        </mxCell>
        <mxCell id="7c3789c024ecab99-52" style="edgeStyle=none;html=1;labelBackgroundColor=none;endArrow=none;endFill=0;strokeWidth=2;fontFamily=Verdana;fontSize=15;fontColor=#036897;" parent="1" source="7c3789c024ecab99-10" target="7c3789c024ecab99-8" edge="1">
          <mxGeometry relative="1" as="geometry">
            <mxPoint x="1549.9999999999995" y="917" as="targetPoint" />
          </mxGeometry>
        </mxCell>
        <mxCell id="7c3789c024ecab99-10" value="" style="fontColor=#0066CC;verticalAlign=top;verticalLabelPosition=bottom;labelPosition=center;align=center;html=1;fillColor=#CCCCCC;strokeColor=#6881B3;gradientColor=none;gradientDirection=north;strokeWidth=2;shape=mxgraph.networks.router;rounded=0;shadow=0;comic=0;" parent="1" vertex="1">
          <mxGeometry x="1300" y="882" width="100" height="30" as="geometry" />
        </mxCell>
        <mxCell id="7c3789c024ecab99-1" value="" style="fontColor=#0066CC;verticalAlign=top;verticalLabelPosition=bottom;labelPosition=center;align=center;html=1;fillColor=#CCCCCC;strokeColor=#6881B3;gradientColor=none;gradientDirection=north;strokeWidth=2;shape=mxgraph.networks.pc;rounded=0;shadow=0;comic=0;" parent="1" vertex="1">
          <mxGeometry x="130.00000000000028" y="310" width="100" height="70" as="geometry" />
        </mxCell>
        <mxCell id="7c3789c024ecab99-2" value="" style="fontColor=#0066CC;verticalAlign=top;verticalLabelPosition=bottom;labelPosition=center;align=center;html=1;fillColor=#CCCCCC;strokeColor=#6881B3;gradientColor=none;gradientDirection=north;strokeWidth=2;shape=mxgraph.networks.pc;rounded=0;shadow=0;comic=0;" parent="1" vertex="1">
          <mxGeometry x="270.0000000000003" y="310" width="100" height="70" as="geometry" />
        </mxCell>
        <mxCell id="7c3789c024ecab99-3" value="" style="fontColor=#0066CC;verticalAlign=top;verticalLabelPosition=bottom;labelPosition=center;align=center;html=1;fillColor=#CCCCCC;strokeColor=#6881B3;gradientColor=none;gradientDirection=north;strokeWidth=2;shape=mxgraph.networks.pc;rounded=0;shadow=0;comic=0;" parent="1" vertex="1">
          <mxGeometry x="390.0000000000003" y="310" width="100" height="70" as="geometry" />
        </mxCell>
        <mxCell id="7c3789c024ecab99-4" value="" style="fontColor=#0066CC;verticalAlign=top;verticalLabelPosition=bottom;labelPosition=center;align=center;html=1;fillColor=#CCCCCC;strokeColor=#6881B3;gradientColor=none;gradientDirection=north;strokeWidth=2;shape=mxgraph.networks.pc;rounded=0;shadow=0;comic=0;" parent="1" vertex="1">
          <mxGeometry x="510.0000000000003" y="310" width="100" height="70" as="geometry" />
        </mxCell>
        <mxCell id="7c3789c024ecab99-5" value="" style="fontColor=#0066CC;verticalAlign=top;verticalLabelPosition=bottom;labelPosition=center;align=center;html=1;fillColor=#CCCCCC;strokeColor=#6881B3;gradientColor=none;gradientDirection=north;strokeWidth=2;shape=mxgraph.networks.pc;rounded=0;shadow=0;comic=0;" parent="1" vertex="1">
          <mxGeometry x="640.0000000000002" y="310" width="100" height="70" as="geometry" />
        </mxCell>
        <mxCell id="7c3789c024ecab99-6" value="" style="fontColor=#0066CC;verticalAlign=top;verticalLabelPosition=bottom;labelPosition=center;align=center;html=1;fillColor=#CCCCCC;strokeColor=#6881B3;gradientColor=none;gradientDirection=north;strokeWidth=2;shape=mxgraph.networks.printer;rounded=0;shadow=0;comic=0;" parent="1" vertex="1">
          <mxGeometry x="770.0000000000002" y="295" width="100" height="100" as="geometry" />
        </mxCell>
        <mxCell id="7c3789c024ecab99-9" value="" style="fontColor=#0066CC;verticalAlign=top;verticalLabelPosition=bottom;labelPosition=center;align=center;html=1;fillColor=#CCCCCC;strokeColor=#6881B3;gradientColor=none;gradientDirection=north;strokeWidth=2;shape=mxgraph.networks.wireless_hub;rounded=0;shadow=0;comic=0;" parent="1" vertex="1">
          <mxGeometry x="670.0000000000002" y="120" width="100" height="85" as="geometry" />
        </mxCell>
        <mxCell id="7c3789c024ecab99-13" style="edgeStyle=none;html=1;labelBackgroundColor=none;endArrow=none;endFill=0;strokeWidth=2;fontFamily=Verdana;fontSize=15;fontColor=#036897;" parent="1" source="7c3789c024ecab99-1" target="7c3789c024ecab99-9" edge="1">
          <mxGeometry relative="1" as="geometry">
            <mxPoint x="650.0000000000002" y="240" as="targetPoint" />
          </mxGeometry>
        </mxCell>
        <mxCell id="7c3789c024ecab99-14" style="edgeStyle=none;html=1;labelBackgroundColor=none;endArrow=none;endFill=0;strokeWidth=2;fontFamily=Verdana;fontSize=15;fontColor=#036897;" parent="1" source="7c3789c024ecab99-3" target="7c3789c024ecab99-9" edge="1">
          <mxGeometry relative="1" as="geometry" />
        </mxCell>
        <mxCell id="7c3789c024ecab99-15" style="edgeStyle=none;html=1;labelBackgroundColor=none;endArrow=none;endFill=0;strokeWidth=2;fontFamily=Verdana;fontSize=15;fontColor=#036897;" parent="1" source="7c3789c024ecab99-4" target="7c3789c024ecab99-9" edge="1">
          <mxGeometry relative="1" as="geometry" />
        </mxCell>
        <mxCell id="7c3789c024ecab99-16" style="edgeStyle=none;html=1;labelBackgroundColor=none;endArrow=none;endFill=0;strokeWidth=2;fontFamily=Verdana;fontSize=15;fontColor=#036897;" parent="1" source="7c3789c024ecab99-5" target="7c3789c024ecab99-9" edge="1">
          <mxGeometry relative="1" as="geometry" />
        </mxCell>
        <mxCell id="7c3789c024ecab99-17" style="edgeStyle=none;html=1;labelBackgroundColor=none;endArrow=none;endFill=0;strokeWidth=2;fontFamily=Verdana;fontSize=15;fontColor=#036897;" parent="1" source="7c3789c024ecab99-6" target="7c3789c024ecab99-9" edge="1">
          <mxGeometry relative="1" as="geometry" />
        </mxCell>
        <mxCell id="7c3789c024ecab99-11" value="" style="html=1;fillColor=#CCCCCC;strokeColor=#6881B3;gradientColor=none;gradientDirection=north;strokeWidth=2;shape=mxgraph.networks.comm_link_edge;html=1;labelBackgroundColor=none;endArrow=none;endFill=0;fontFamily=Verdana;fontSize=20;" parent="1" source="7c3789c024ecab99-9" target="7c3789c024ecab99-12" edge="1">
          <mxGeometry width="100" height="100" relative="1" as="geometry">
            <mxPoint x="900.0000000000002" y="220" as="sourcePoint" />
            <mxPoint x="603.0000000000002" y="133" as="targetPoint" />
          </mxGeometry>
        </mxCell>
        <mxCell id="7c3789c024ecab99-12" value="" style="fontColor=#0066CC;verticalAlign=top;verticalLabelPosition=bottom;labelPosition=center;align=center;html=1;fillColor=#CCCCCC;strokeColor=#6881B3;gradientColor=none;gradientDirection=north;strokeWidth=2;shape=mxgraph.networks.mobile;rounded=0;shadow=0;comic=0;" parent="1" vertex="1">
          <mxGeometry x="320.0000000000003" y="30" width="50" height="100" as="geometry" />
        </mxCell>
        <mxCell id="7c3789c024ecab99-20" value="" style="fontColor=#0066CC;verticalAlign=top;verticalLabelPosition=bottom;labelPosition=center;align=center;html=1;fillColor=#CCCCCC;strokeColor=#6881B3;gradientColor=none;gradientDirection=north;strokeWidth=2;shape=mxgraph.networks.pc;rounded=0;shadow=0;comic=0;" parent="1" vertex="1">
          <mxGeometry x="130.00000000000028" y="765" width="100" height="70" as="geometry" />
        </mxCell>
        <mxCell id="7c3789c024ecab99-21" value="" style="fontColor=#0066CC;verticalAlign=top;verticalLabelPosition=bottom;labelPosition=center;align=center;html=1;fillColor=#CCCCCC;strokeColor=#6881B3;gradientColor=none;gradientDirection=north;strokeWidth=2;shape=mxgraph.networks.pc;rounded=0;shadow=0;comic=0;" parent="1" vertex="1">
          <mxGeometry x="270.0000000000003" y="765" width="100" height="70" as="geometry" />
        </mxCell>
        <mxCell id="7c3789c024ecab99-23" value="" style="fontColor=#0066CC;verticalAlign=top;verticalLabelPosition=bottom;labelPosition=center;align=center;html=1;fillColor=#CCCCCC;strokeColor=#6881B3;gradientColor=none;gradientDirection=north;strokeWidth=2;shape=mxgraph.networks.pc;rounded=0;shadow=0;comic=0;" parent="1" vertex="1">
          <mxGeometry x="390.0000000000003" y="765" width="100" height="70" as="geometry" />
        </mxCell>
        <mxCell id="7c3789c024ecab99-25" value="" style="fontColor=#0066CC;verticalAlign=top;verticalLabelPosition=bottom;labelPosition=center;align=center;html=1;fillColor=#CCCCCC;strokeColor=#6881B3;gradientColor=none;gradientDirection=north;strokeWidth=2;shape=mxgraph.networks.pc;rounded=0;shadow=0;comic=0;" parent="1" vertex="1">
          <mxGeometry x="510.0000000000003" y="765" width="100" height="70" as="geometry" />
        </mxCell>
        <mxCell id="7c3789c024ecab99-27" value="" style="fontColor=#0066CC;verticalAlign=top;verticalLabelPosition=bottom;labelPosition=center;align=center;html=1;fillColor=#CCCCCC;strokeColor=#6881B3;gradientColor=none;gradientDirection=north;strokeWidth=2;shape=mxgraph.networks.pc;rounded=0;shadow=0;comic=0;" parent="1" vertex="1">
          <mxGeometry x="640.0000000000002" y="765" width="100" height="70" as="geometry" />
        </mxCell>
        <mxCell id="7c3789c024ecab99-29" value="" style="fontColor=#0066CC;verticalAlign=top;verticalLabelPosition=bottom;labelPosition=center;align=center;html=1;fillColor=#CCCCCC;strokeColor=#6881B3;gradientColor=none;gradientDirection=north;strokeWidth=2;shape=mxgraph.networks.printer;rounded=0;shadow=0;comic=0;" parent="1" vertex="1">
          <mxGeometry x="770.0000000000002" y="750" width="100" height="100" as="geometry" />
        </mxCell>
        <mxCell id="7c3789c024ecab99-50" style="edgeStyle=orthogonalEdgeStyle;html=1;labelBackgroundColor=none;endArrow=none;endFill=0;strokeWidth=2;fontFamily=Verdana;fontSize=15;fontColor=#036897;" parent="1" source="7c3789c024ecab99-30" target="7c3789c024ecab99-10" edge="1">
          <mxGeometry relative="1" as="geometry">
            <mxPoint x="1079.9999999999995" y="410" as="targetPoint" />
            <mxPoint x="1200" y="620" as="sourcePoint" />
            <Array as="points">
              <mxPoint x="1340" y="650" />
            </Array>
          </mxGeometry>
        </mxCell>
        <mxCell id="7c3789c024ecab99-30" value="" style="fontColor=#0066CC;verticalAlign=top;verticalLabelPosition=bottom;labelPosition=center;align=center;html=1;fillColor=#CCCCCC;strokeColor=#6881B3;gradientColor=none;gradientDirection=north;strokeWidth=2;shape=mxgraph.networks.wireless_hub;rounded=0;shadow=0;comic=0;" parent="1" vertex="1">
          <mxGeometry x="670.0000000000002" y="575" width="100" height="85" as="geometry" />
        </mxCell>
        <mxCell id="7c3789c024ecab99-19" style="edgeStyle=none;html=1;labelBackgroundColor=none;endArrow=none;endFill=0;strokeWidth=2;fontFamily=Verdana;fontSize=15;fontColor=#036897;" parent="1" source="7c3789c024ecab99-20" target="7c3789c024ecab99-30" edge="1">
          <mxGeometry relative="1" as="geometry">
            <mxPoint x="650.0000000000002" y="695" as="targetPoint" />
          </mxGeometry>
        </mxCell>
        <mxCell id="7c3789c024ecab99-22" style="edgeStyle=none;html=1;labelBackgroundColor=none;endArrow=none;endFill=0;strokeWidth=2;fontFamily=Verdana;fontSize=15;fontColor=#036897;" parent="1" source="7c3789c024ecab99-23" target="7c3789c024ecab99-30" edge="1">
          <mxGeometry relative="1" as="geometry" />
        </mxCell>
        <mxCell id="7c3789c024ecab99-24" style="edgeStyle=none;html=1;labelBackgroundColor=none;endArrow=none;endFill=0;strokeWidth=2;fontFamily=Verdana;fontSize=15;fontColor=#036897;" parent="1" source="7c3789c024ecab99-25" target="7c3789c024ecab99-30" edge="1">
          <mxGeometry relative="1" as="geometry" />
        </mxCell>
        <mxCell id="7c3789c024ecab99-26" style="edgeStyle=none;html=1;labelBackgroundColor=none;endArrow=none;endFill=0;strokeWidth=2;fontFamily=Verdana;fontSize=15;fontColor=#036897;" parent="1" source="7c3789c024ecab99-27" target="7c3789c024ecab99-30" edge="1">
          <mxGeometry relative="1" as="geometry" />
        </mxCell>
        <mxCell id="7c3789c024ecab99-28" style="edgeStyle=none;html=1;labelBackgroundColor=none;endArrow=none;endFill=0;strokeWidth=2;fontFamily=Verdana;fontSize=15;fontColor=#036897;" parent="1" source="7c3789c024ecab99-29" target="7c3789c024ecab99-30" edge="1">
          <mxGeometry relative="1" as="geometry" />
        </mxCell>
        <mxCell id="7c3789c024ecab99-31" value="" style="html=1;fillColor=#CCCCCC;strokeColor=#6881B3;gradientColor=none;gradientDirection=north;strokeWidth=2;shape=mxgraph.networks.comm_link_edge;html=1;labelBackgroundColor=none;endArrow=none;endFill=0;fontFamily=Verdana;fontSize=20;" parent="1" source="7c3789c024ecab99-30" target="7c3789c024ecab99-32" edge="1">
          <mxGeometry width="100" height="100" relative="1" as="geometry">
            <mxPoint x="900.0000000000002" y="675" as="sourcePoint" />
            <mxPoint x="603.0000000000002" y="588" as="targetPoint" />
          </mxGeometry>
        </mxCell>
        <mxCell id="7c3789c024ecab99-32" value="" style="fontColor=#0066CC;verticalAlign=top;verticalLabelPosition=bottom;labelPosition=center;align=center;html=1;fillColor=#CCCCCC;strokeColor=#6881B3;gradientColor=none;gradientDirection=north;strokeWidth=2;shape=mxgraph.networks.mobile;rounded=0;shadow=0;comic=0;" parent="1" vertex="1">
          <mxGeometry x="320.0000000000003" y="485" width="50" height="100" as="geometry" />
        </mxCell>
        <mxCell id="7c3789c024ecab99-34" value="" style="fontColor=#0066CC;verticalAlign=top;verticalLabelPosition=bottom;labelPosition=center;align=center;html=1;fillColor=#CCCCCC;strokeColor=#6881B3;gradientColor=none;gradientDirection=north;strokeWidth=2;shape=mxgraph.networks.pc;rounded=0;shadow=0;comic=0;" parent="1" vertex="1">
          <mxGeometry x="130.00000000000026" y="1199.4117647058824" width="100" height="70" as="geometry" />
        </mxCell>
        <mxCell id="7c3789c024ecab99-35" value="" style="fontColor=#0066CC;verticalAlign=top;verticalLabelPosition=bottom;labelPosition=center;align=center;html=1;fillColor=#CCCCCC;strokeColor=#6881B3;gradientColor=none;gradientDirection=north;strokeWidth=2;shape=mxgraph.networks.pc;rounded=0;shadow=0;comic=0;" parent="1" vertex="1">
          <mxGeometry x="270.0000000000002" y="1199.4117647058824" width="100" height="70" as="geometry" />
        </mxCell>
        <mxCell id="7c3789c024ecab99-37" value="" style="fontColor=#0066CC;verticalAlign=top;verticalLabelPosition=bottom;labelPosition=center;align=center;html=1;fillColor=#CCCCCC;strokeColor=#6881B3;gradientColor=none;gradientDirection=north;strokeWidth=2;shape=mxgraph.networks.pc;rounded=0;shadow=0;comic=0;" parent="1" vertex="1">
          <mxGeometry x="390.0000000000002" y="1199.4117647058824" width="100" height="70" as="geometry" />
        </mxCell>
        <mxCell id="7c3789c024ecab99-39" value="" style="fontColor=#0066CC;verticalAlign=top;verticalLabelPosition=bottom;labelPosition=center;align=center;html=1;fillColor=#CCCCCC;strokeColor=#6881B3;gradientColor=none;gradientDirection=north;strokeWidth=2;shape=mxgraph.networks.pc;rounded=0;shadow=0;comic=0;" parent="1" vertex="1">
          <mxGeometry x="510.0000000000002" y="1199.4117647058824" width="100" height="70" as="geometry" />
        </mxCell>
        <mxCell id="7c3789c024ecab99-41" value="" style="fontColor=#0066CC;verticalAlign=top;verticalLabelPosition=bottom;labelPosition=center;align=center;html=1;fillColor=#CCCCCC;strokeColor=#6881B3;gradientColor=none;gradientDirection=north;strokeWidth=2;shape=mxgraph.networks.pc;rounded=0;shadow=0;comic=0;" parent="1" vertex="1">
          <mxGeometry x="640.0000000000002" y="1199.4117647058824" width="100" height="70" as="geometry" />
        </mxCell>
        <mxCell id="7c3789c024ecab99-43" value="" style="fontColor=#0066CC;verticalAlign=top;verticalLabelPosition=bottom;labelPosition=center;align=center;html=1;fillColor=#CCCCCC;strokeColor=#6881B3;gradientColor=none;gradientDirection=north;strokeWidth=2;shape=mxgraph.networks.printer;rounded=0;shadow=0;comic=0;" parent="1" vertex="1">
          <mxGeometry x="770.0000000000002" y="1184.4117647058824" width="100" height="100" as="geometry" />
        </mxCell>
        <mxCell id="7c3789c024ecab99-51" style="edgeStyle=orthogonalEdgeStyle;html=1;labelBackgroundColor=none;endArrow=none;endFill=0;strokeWidth=2;fontFamily=Verdana;fontSize=15;fontColor=#036897;" parent="1" source="7c3789c024ecab99-44" target="7c3789c024ecab99-10" edge="1">
          <mxGeometry relative="1" as="geometry">
            <mxPoint x="1180" y="430" as="targetPoint" />
            <Array as="points">
              <mxPoint x="1340" y="1080" />
            </Array>
          </mxGeometry>
        </mxCell>
        <mxCell id="7c3789c024ecab99-44" value="" style="fontColor=#0066CC;verticalAlign=top;verticalLabelPosition=bottom;labelPosition=center;align=center;html=1;fillColor=#CCCCCC;strokeColor=#6881B3;gradientColor=none;gradientDirection=north;strokeWidth=2;shape=mxgraph.networks.wireless_hub;rounded=0;shadow=0;comic=0;" parent="1" vertex="1">
          <mxGeometry x="670.0000000000002" y="1009.4117647058824" width="100" height="85" as="geometry" />
        </mxCell>
        <mxCell id="7c3789c024ecab99-33" style="edgeStyle=none;html=1;labelBackgroundColor=none;endArrow=none;endFill=0;strokeWidth=2;fontFamily=Verdana;fontSize=15;fontColor=#036897;" parent="1" source="7c3789c024ecab99-34" target="7c3789c024ecab99-44" edge="1">
          <mxGeometry relative="1" as="geometry">
            <mxPoint x="650.0000000000002" y="1129.4117647058824" as="targetPoint" />
          </mxGeometry>
        </mxCell>
        <mxCell id="7c3789c024ecab99-36" style="edgeStyle=none;html=1;labelBackgroundColor=none;endArrow=none;endFill=0;strokeWidth=2;fontFamily=Verdana;fontSize=15;fontColor=#036897;" parent="1" source="7c3789c024ecab99-37" target="7c3789c024ecab99-44" edge="1">
          <mxGeometry relative="1" as="geometry" />
        </mxCell>
        <mxCell id="7c3789c024ecab99-38" style="edgeStyle=none;html=1;labelBackgroundColor=none;endArrow=none;endFill=0;strokeWidth=2;fontFamily=Verdana;fontSize=15;fontColor=#036897;" parent="1" source="7c3789c024ecab99-39" target="7c3789c024ecab99-44" edge="1">
          <mxGeometry relative="1" as="geometry" />
        </mxCell>
        <mxCell id="7c3789c024ecab99-40" style="edgeStyle=none;html=1;labelBackgroundColor=none;endArrow=none;endFill=0;strokeWidth=2;fontFamily=Verdana;fontSize=15;fontColor=#036897;" parent="1" source="7c3789c024ecab99-41" target="7c3789c024ecab99-44" edge="1">
          <mxGeometry relative="1" as="geometry" />
        </mxCell>
        <mxCell id="7c3789c024ecab99-42" style="edgeStyle=none;html=1;labelBackgroundColor=none;endArrow=none;endFill=0;strokeWidth=2;fontFamily=Verdana;fontSize=15;fontColor=#036897;" parent="1" source="7c3789c024ecab99-43" target="7c3789c024ecab99-44" edge="1">
          <mxGeometry relative="1" as="geometry" />
        </mxCell>
        <mxCell id="7c3789c024ecab99-45" value="" style="html=1;fillColor=#CCCCCC;strokeColor=#6881B3;gradientColor=none;gradientDirection=north;strokeWidth=2;shape=mxgraph.networks.comm_link_edge;html=1;labelBackgroundColor=none;endArrow=none;endFill=0;fontFamily=Verdana;fontSize=20;" parent="1" source="7c3789c024ecab99-44" target="7c3789c024ecab99-46" edge="1">
          <mxGeometry width="100" height="100" relative="1" as="geometry">
            <mxPoint x="900.0000000000002" y="1109.4117647058824" as="sourcePoint" />
            <mxPoint x="603.0000000000002" y="1022.4117647058824" as="targetPoint" />
          </mxGeometry>
        </mxCell>
        <mxCell id="7c3789c024ecab99-46" value="" style="fontColor=#0066CC;verticalAlign=top;verticalLabelPosition=bottom;labelPosition=center;align=center;html=1;fillColor=#CCCCCC;strokeColor=#6881B3;gradientColor=none;gradientDirection=north;strokeWidth=2;shape=mxgraph.networks.mobile;rounded=0;shadow=0;comic=0;" parent="1" vertex="1">
          <mxGeometry x="320.0000000000002" y="919.4117647058824" width="50" height="100" as="geometry" />
        </mxCell>
        <mxCell id="7c3789c024ecab99-53" value="Internet" style="html=1;fillColor=#CCCCCC;strokeColor=#6881B3;gradientColor=none;gradientDirection=north;strokeWidth=2;shape=mxgraph.networks.cloud;fontColor=#6881B3;rounded=0;shadow=0;comic=0;align=center;fontSize=28;" parent="1" vertex="1">
          <mxGeometry x="1760" y="689" width="330" height="140" as="geometry" />
        </mxCell>
        <mxCell id="7c3789c024ecab99-56" style="edgeStyle=none;html=1;labelBackgroundColor=none;endArrow=none;endFill=0;strokeWidth=2;fontFamily=Verdana;fontSize=28;fontColor=#6881B3;" parent="1" source="7c3789c024ecab99-54" target="7c3789c024ecab99-53" edge="1">
          <mxGeometry relative="1" as="geometry" />
        </mxCell>
        <mxCell id="7c3789c024ecab99-77" style="edgeStyle=none;html=1;labelBackgroundColor=none;endArrow=none;endFill=0;strokeWidth=2;fontFamily=Verdana;fontSize=28;fontColor=#6881B3;" parent="1" source="7c3789c024ecab99-54" target="7c3789c024ecab99-76" edge="1">
          <mxGeometry relative="1" as="geometry" />
        </mxCell>
        <mxCell id="7c3789c024ecab99-54" value="" style="fontColor=#0066CC;verticalAlign=top;verticalLabelPosition=bottom;labelPosition=center;align=center;html=1;fillColor=#CCCCCC;strokeColor=#6881B3;gradientColor=none;gradientDirection=north;strokeWidth=2;shape=mxgraph.networks.router;rounded=0;shadow=0;comic=0;" parent="1" vertex="1">
          <mxGeometry x="1640" y="882" width="100" height="30" as="geometry" />
        </mxCell>
        <mxCell id="7c3789c024ecab99-60" style="edgeStyle=none;html=1;labelBackgroundColor=none;endArrow=none;endFill=0;strokeWidth=2;fontFamily=Verdana;fontSize=28;fontColor=#6881B3;" parent="1" source="7c3789c024ecab99-57" target="7c3789c024ecab99-54" edge="1">
          <mxGeometry relative="1" as="geometry" />
        </mxCell>
        <mxCell id="7c3789c024ecab99-57" value="" style="fontColor=#0066CC;verticalAlign=top;verticalLabelPosition=bottom;labelPosition=center;align=center;html=1;fillColor=#CCCCCC;strokeColor=#6881B3;gradientColor=none;gradientDirection=north;strokeWidth=2;shape=mxgraph.networks.storage;rounded=0;shadow=0;comic=0;" parent="1" vertex="1">
          <mxGeometry x="1510" y="1079" width="100" height="100" as="geometry" />
        </mxCell>
        <mxCell id="7c3789c024ecab99-59" style="edgeStyle=none;html=1;labelBackgroundColor=none;endArrow=none;endFill=0;strokeWidth=2;fontFamily=Verdana;fontSize=28;fontColor=#6881B3;" parent="1" source="7c3789c024ecab99-58" target="7c3789c024ecab99-54" edge="1">
          <mxGeometry relative="1" as="geometry">
            <mxPoint x="1570" y="827" as="targetPoint" />
          </mxGeometry>
        </mxCell>
        <mxCell id="7c3789c024ecab99-58" value="" style="fontColor=#0066CC;verticalAlign=top;verticalLabelPosition=bottom;labelPosition=center;align=center;html=1;fillColor=#CCCCCC;strokeColor=#6881B3;gradientColor=none;gradientDirection=north;strokeWidth=2;shape=mxgraph.networks.server_storage;rounded=0;shadow=0;comic=0;" parent="1" vertex="1">
          <mxGeometry x="1540" y="605" width="105" height="105" as="geometry" />
        </mxCell>
        <mxCell id="7c3789c024ecab99-61" value="" style="fontColor=#0066CC;verticalAlign=top;verticalLabelPosition=bottom;labelPosition=center;align=center;html=1;fillColor=#CCCCCC;strokeColor=#6881B3;gradientColor=none;gradientDirection=north;strokeWidth=2;shape=mxgraph.networks.pc;rounded=0;shadow=0;comic=0;" parent="1" vertex="1">
          <mxGeometry x="130.00000000000026" y="1670.4117647058824" width="100" height="70" as="geometry" />
        </mxCell>
        <mxCell id="7c3789c024ecab99-62" value="" style="fontColor=#0066CC;verticalAlign=top;verticalLabelPosition=bottom;labelPosition=center;align=center;html=1;fillColor=#CCCCCC;strokeColor=#6881B3;gradientColor=none;gradientDirection=north;strokeWidth=2;shape=mxgraph.networks.pc;rounded=0;shadow=0;comic=0;" parent="1" vertex="1">
          <mxGeometry x="270.0000000000002" y="1670.4117647058824" width="100" height="70" as="geometry" />
        </mxCell>
        <mxCell id="7c3789c024ecab99-63" value="" style="fontColor=#0066CC;verticalAlign=top;verticalLabelPosition=bottom;labelPosition=center;align=center;html=1;fillColor=#CCCCCC;strokeColor=#6881B3;gradientColor=none;gradientDirection=north;strokeWidth=2;shape=mxgraph.networks.pc;rounded=0;shadow=0;comic=0;" parent="1" vertex="1">
          <mxGeometry x="390.0000000000002" y="1670.4117647058824" width="100" height="70" as="geometry" />
        </mxCell>
        <mxCell id="7c3789c024ecab99-64" value="" style="fontColor=#0066CC;verticalAlign=top;verticalLabelPosition=bottom;labelPosition=center;align=center;html=1;fillColor=#CCCCCC;strokeColor=#6881B3;gradientColor=none;gradientDirection=north;strokeWidth=2;shape=mxgraph.networks.pc;rounded=0;shadow=0;comic=0;" parent="1" vertex="1">
          <mxGeometry x="510.0000000000002" y="1670.4117647058824" width="100" height="70" as="geometry" />
        </mxCell>
        <mxCell id="7c3789c024ecab99-65" value="" style="fontColor=#0066CC;verticalAlign=top;verticalLabelPosition=bottom;labelPosition=center;align=center;html=1;fillColor=#CCCCCC;strokeColor=#6881B3;gradientColor=none;gradientDirection=north;strokeWidth=2;shape=mxgraph.networks.pc;rounded=0;shadow=0;comic=0;" parent="1" vertex="1">
          <mxGeometry x="640.0000000000002" y="1670.4117647058824" width="100" height="70" as="geometry" />
        </mxCell>
        <mxCell id="7c3789c024ecab99-66" value="" style="fontColor=#0066CC;verticalAlign=top;verticalLabelPosition=bottom;labelPosition=center;align=center;html=1;fillColor=#CCCCCC;strokeColor=#6881B3;gradientColor=none;gradientDirection=north;strokeWidth=2;shape=mxgraph.networks.printer;rounded=0;shadow=0;comic=0;" parent="1" vertex="1">
          <mxGeometry x="770.0000000000002" y="1655.4117647058824" width="100" height="100" as="geometry" />
        </mxCell>
        <mxCell id="7c3789c024ecab99-75" style="edgeStyle=orthogonalEdgeStyle;html=1;labelBackgroundColor=none;endArrow=none;endFill=0;strokeWidth=2;fontFamily=Verdana;fontSize=28;fontColor=#6881B3;" parent="1" source="7c3789c024ecab99-67" target="7c3789c024ecab99-10" edge="1">
          <mxGeometry relative="1" as="geometry">
            <mxPoint x="1240" y="760" as="targetPoint" />
            <Array as="points">
              <mxPoint x="1370" y="1552" />
            </Array>
          </mxGeometry>
        </mxCell>
        <mxCell id="7c3789c024ecab99-67" value="" style="fontColor=#0066CC;verticalAlign=top;verticalLabelPosition=bottom;labelPosition=center;align=center;html=1;fillColor=#CCCCCC;strokeColor=#6881B3;gradientColor=none;gradientDirection=north;strokeWidth=2;shape=mxgraph.networks.wireless_hub;rounded=0;shadow=0;comic=0;" parent="1" vertex="1">
          <mxGeometry x="670.0000000000002" y="1480.4117647058824" width="100" height="85" as="geometry" />
        </mxCell>
        <mxCell id="7c3789c024ecab99-68" style="edgeStyle=none;html=1;labelBackgroundColor=none;endArrow=none;endFill=0;strokeWidth=2;fontFamily=Verdana;fontSize=15;fontColor=#036897;" parent="1" source="7c3789c024ecab99-61" target="7c3789c024ecab99-67" edge="1">
          <mxGeometry relative="1" as="geometry">
            <mxPoint x="650.0000000000002" y="1600.4117647058824" as="targetPoint" />
          </mxGeometry>
        </mxCell>
        <mxCell id="7c3789c024ecab99-69" style="edgeStyle=none;html=1;labelBackgroundColor=none;endArrow=none;endFill=0;strokeWidth=2;fontFamily=Verdana;fontSize=15;fontColor=#036897;" parent="1" source="7c3789c024ecab99-63" target="7c3789c024ecab99-67" edge="1">
          <mxGeometry relative="1" as="geometry" />
        </mxCell>
        <mxCell id="7c3789c024ecab99-70" style="edgeStyle=none;html=1;labelBackgroundColor=none;endArrow=none;endFill=0;strokeWidth=2;fontFamily=Verdana;fontSize=15;fontColor=#036897;" parent="1" source="7c3789c024ecab99-64" target="7c3789c024ecab99-67" edge="1">
          <mxGeometry relative="1" as="geometry" />
        </mxCell>
        <mxCell id="7c3789c024ecab99-71" style="edgeStyle=none;html=1;labelBackgroundColor=none;endArrow=none;endFill=0;strokeWidth=2;fontFamily=Verdana;fontSize=15;fontColor=#036897;" parent="1" source="7c3789c024ecab99-65" target="7c3789c024ecab99-67" edge="1">
          <mxGeometry relative="1" as="geometry" />
        </mxCell>
        <mxCell id="7c3789c024ecab99-72" style="edgeStyle=none;html=1;labelBackgroundColor=none;endArrow=none;endFill=0;strokeWidth=2;fontFamily=Verdana;fontSize=15;fontColor=#036897;" parent="1" source="7c3789c024ecab99-66" target="7c3789c024ecab99-67" edge="1">
          <mxGeometry relative="1" as="geometry" />
        </mxCell>
        <mxCell id="7c3789c024ecab99-73" value="" style="html=1;fillColor=#CCCCCC;strokeColor=#6881B3;gradientColor=none;gradientDirection=north;strokeWidth=2;shape=mxgraph.networks.comm_link_edge;html=1;labelBackgroundColor=none;endArrow=none;endFill=0;fontFamily=Verdana;fontSize=20;" parent="1" source="7c3789c024ecab99-67" target="7c3789c024ecab99-74" edge="1">
          <mxGeometry width="100" height="100" relative="1" as="geometry">
            <mxPoint x="900.0000000000002" y="1580.4117647058824" as="sourcePoint" />
            <mxPoint x="603.0000000000002" y="1493.4117647058824" as="targetPoint" />
          </mxGeometry>
        </mxCell>
        <mxCell id="7c3789c024ecab99-74" value="" style="fontColor=#0066CC;verticalAlign=top;verticalLabelPosition=bottom;labelPosition=center;align=center;html=1;fillColor=#CCCCCC;strokeColor=#6881B3;gradientColor=none;gradientDirection=north;strokeWidth=2;shape=mxgraph.networks.mobile;rounded=0;shadow=0;comic=0;" parent="1" vertex="1">
          <mxGeometry x="320.0000000000002" y="1390.4117647058824" width="50" height="100" as="geometry" />
        </mxCell>
        <mxCell id="7c3789c024ecab99-76" value="Campus 2" style="html=1;fillColor=#CCCCCC;strokeColor=#6881B3;gradientColor=none;gradientDirection=north;strokeWidth=2;shape=mxgraph.networks.cloud;fontColor=#6881B3;rounded=0;shadow=0;comic=0;align=center;fontSize=28;" parent="1" vertex="1">
          <mxGeometry x="1740" y="1044" width="330" height="140" as="geometry" />
        </mxCell>
      </root>
    </mxGraphModel>
  </diagram>
  <diagram id="1oVL0QBhNRgB7vYuvGgL" name="Page-2">
    <mxGraphModel dx="1422" dy="762" grid="1" gridSize="10" guides="1" tooltips="1" connect="1" arrows="1" fold="1" page="1" pageScale="1" pageWidth="827" pageHeight="1169" math="0" shadow="0">
      <root>
        <mxCell id="HKDqVsgVxOON_ts5jWsu-0" />
        <mxCell id="HKDqVsgVxOON_ts5jWsu-1" parent="HKDqVsgVxOON_ts5jWsu-0" />
        <mxCell id="HKDqVsgVxOON_ts5jWsu-3" value="" style="sketch=0;aspect=fixed;pointerEvents=1;shadow=0;dashed=0;html=1;strokeColor=none;labelPosition=center;verticalLabelPosition=bottom;verticalAlign=top;align=center;fillColor=#00188D;shape=mxgraph.azure.user" vertex="1" parent="HKDqVsgVxOON_ts5jWsu-1">
          <mxGeometry x="130" y="60" width="47" height="50" as="geometry" />
        </mxCell>
        <mxCell id="HKDqVsgVxOON_ts5jWsu-4" value="" style="sketch=0;aspect=fixed;pointerEvents=1;shadow=0;dashed=0;html=1;strokeColor=none;labelPosition=center;verticalLabelPosition=bottom;verticalAlign=top;align=center;fillColor=#00188D;shape=mxgraph.mscae.enterprise.internet_hollow" vertex="1" parent="HKDqVsgVxOON_ts5jWsu-1">
          <mxGeometry x="280" y="70" width="50" height="31" as="geometry" />
        </mxCell>
        <mxCell id="HKDqVsgVxOON_ts5jWsu-5" value="" style="fontColor=#0066CC;verticalAlign=top;verticalLabelPosition=bottom;labelPosition=center;align=center;html=1;outlineConnect=0;fillColor=#CCCCCC;strokeColor=#6881B3;gradientColor=none;gradientDirection=north;strokeWidth=2;shape=mxgraph.networks.firewall;" vertex="1" parent="HKDqVsgVxOON_ts5jWsu-1">
          <mxGeometry x="255" y="190" width="100" height="100" as="geometry" />
        </mxCell>
        <mxCell id="HKDqVsgVxOON_ts5jWsu-6" value="" style="shape=singleArrow;whiteSpace=wrap;html=1;" vertex="1" parent="HKDqVsgVxOON_ts5jWsu-1">
          <mxGeometry x="190" y="70" width="70" height="40" as="geometry" />
        </mxCell>
        <mxCell id="HKDqVsgVxOON_ts5jWsu-7" value="" style="shape=singleArrow;direction=south;whiteSpace=wrap;html=1;" vertex="1" parent="HKDqVsgVxOON_ts5jWsu-1">
          <mxGeometry x="285" y="120" width="40" height="60" as="geometry" />
        </mxCell>
        <mxCell id="HKDqVsgVxOON_ts5jWsu-10" value="用户" style="rounded=1;whiteSpace=wrap;html=1;strokeColor=none;" vertex="1" parent="HKDqVsgVxOON_ts5jWsu-1">
          <mxGeometry x="128.5" y="120" width="50" height="20" as="geometry" />
        </mxCell>
        <mxCell id="HKDqVsgVxOON_ts5jWsu-11" value="蓝盾防火墙" style="rounded=1;whiteSpace=wrap;html=1;strokeColor=none;" vertex="1" parent="HKDqVsgVxOON_ts5jWsu-1">
          <mxGeometry x="252.5" y="300" width="105" height="20" as="geometry" />
        </mxCell>
        <mxCell id="HKDqVsgVxOON_ts5jWsu-12" value="" style="sketch=0;aspect=fixed;pointerEvents=1;shadow=0;dashed=0;html=1;strokeColor=none;labelPosition=center;verticalLabelPosition=bottom;verticalAlign=top;align=center;fillColor=#00188D;shape=mxgraph.mscae.enterprise.firewall" vertex="1" parent="HKDqVsgVxOON_ts5jWsu-1">
          <mxGeometry x="261.59" y="400" width="90.91" height="80" as="geometry" />
        </mxCell>
        <mxCell id="HKDqVsgVxOON_ts5jWsu-13" value="" style="shape=singleArrow;direction=south;whiteSpace=wrap;html=1;strokeColor=default;" vertex="1" parent="HKDqVsgVxOON_ts5jWsu-1">
          <mxGeometry x="287" y="320" width="36" height="70" as="geometry" />
        </mxCell>
        <mxCell id="HKDqVsgVxOON_ts5jWsu-14" value="联通云网络防火墙" style="rounded=1;whiteSpace=wrap;html=1;strokeColor=none;" vertex="1" parent="HKDqVsgVxOON_ts5jWsu-1">
          <mxGeometry x="255" y="490" width="104.09" height="30" as="geometry" />
        </mxCell>
        <mxCell id="HKDqVsgVxOON_ts5jWsu-16" value="" style="shape=singleArrow;direction=south;whiteSpace=wrap;html=1;strokeColor=default;" vertex="1" parent="HKDqVsgVxOON_ts5jWsu-1">
          <mxGeometry x="288.5" y="520" width="33" height="80" as="geometry" />
        </mxCell>
        <mxCell id="HKDqVsgVxOON_ts5jWsu-17" value="" style="rounded=1;whiteSpace=wrap;html=1;strokeColor=default;" vertex="1" parent="HKDqVsgVxOON_ts5jWsu-1">
          <mxGeometry x="138.07000000000002" y="630" width="337.95" height="100" as="geometry" />
        </mxCell>
        <mxCell id="HKDqVsgVxOON_ts5jWsu-18" value="" style="sketch=0;aspect=fixed;pointerEvents=1;shadow=0;dashed=0;html=1;strokeColor=none;labelPosition=center;verticalLabelPosition=bottom;verticalAlign=top;align=center;fillColor=#00188D;shape=mxgraph.mscae.enterprise.server_generic" vertex="1" parent="HKDqVsgVxOON_ts5jWsu-1">
          <mxGeometry x="211.5" y="640" width="24" height="50" as="geometry" />
        </mxCell>
        <mxCell id="HKDqVsgVxOON_ts5jWsu-19" value="" style="sketch=0;aspect=fixed;pointerEvents=1;shadow=0;dashed=0;html=1;strokeColor=none;labelPosition=center;verticalLabelPosition=bottom;verticalAlign=top;align=center;fillColor=#00188D;shape=mxgraph.mscae.enterprise.server_generic" vertex="1" parent="HKDqVsgVxOON_ts5jWsu-1">
          <mxGeometry x="363" y="640" width="24" height="50" as="geometry" />
        </mxCell>
        <mxCell id="HKDqVsgVxOON_ts5jWsu-20" value="nginx反向代理节点1" style="rounded=1;whiteSpace=wrap;html=1;strokeColor=none;" vertex="1" parent="HKDqVsgVxOON_ts5jWsu-1">
          <mxGeometry x="158.5" y="700" width="130" height="20" as="geometry" />
        </mxCell>
        <mxCell id="HKDqVsgVxOON_ts5jWsu-21" value="nginx反向代理节点2" style="rounded=1;whiteSpace=wrap;html=1;strokeColor=none;" vertex="1" parent="HKDqVsgVxOON_ts5jWsu-1">
          <mxGeometry x="310" y="700" width="130" height="20" as="geometry" />
        </mxCell>
        <mxCell id="HKDqVsgVxOON_ts5jWsu-24" value="nginx负载均衡" style="rounded=1;whiteSpace=wrap;html=1;strokeColor=none;" vertex="1" parent="HKDqVsgVxOON_ts5jWsu-1">
          <mxGeometry x="255" y="600" width="100" height="25" as="geometry" />
        </mxCell>
        <mxCell id="HKDqVsgVxOON_ts5jWsu-25" value="" style="rounded=1;whiteSpace=wrap;html=1;strokeColor=default;" vertex="1" parent="HKDqVsgVxOON_ts5jWsu-1">
          <mxGeometry y="830" width="1380" height="250" as="geometry" />
        </mxCell>
        <mxCell id="HKDqVsgVxOON_ts5jWsu-26" value="" style="shape=singleArrow;direction=south;whiteSpace=wrap;html=1;strokeColor=default;" vertex="1" parent="HKDqVsgVxOON_ts5jWsu-1">
          <mxGeometry x="289.5" y="740" width="31" height="90" as="geometry" />
        </mxCell>
        <mxCell id="HKDqVsgVxOON_ts5jWsu-27" value="" style="ellipse;whiteSpace=wrap;html=1;strokeColor=default;" vertex="1" parent="HKDqVsgVxOON_ts5jWsu-1">
          <mxGeometry x="28.5" y="870" width="250" height="190" as="geometry" />
        </mxCell>
        <mxCell id="HKDqVsgVxOON_ts5jWsu-28" value="" style="sketch=0;aspect=fixed;pointerEvents=1;shadow=0;dashed=0;html=1;strokeColor=none;labelPosition=center;verticalLabelPosition=bottom;verticalAlign=top;align=center;fillColor=#00188D;shape=mxgraph.mscae.enterprise.server_generic" vertex="1" parent="HKDqVsgVxOON_ts5jWsu-1">
          <mxGeometry x="77.25" y="900" width="24" height="50" as="geometry" />
        </mxCell>
        <mxCell id="HKDqVsgVxOON_ts5jWsu-29" value="" style="sketch=0;aspect=fixed;pointerEvents=1;shadow=0;dashed=0;html=1;strokeColor=none;labelPosition=center;verticalLabelPosition=bottom;verticalAlign=top;align=center;fillColor=#00188D;shape=mxgraph.mscae.enterprise.server_generic" vertex="1" parent="HKDqVsgVxOON_ts5jWsu-1">
          <mxGeometry x="211.5" y="900" width="24" height="50" as="geometry" />
        </mxCell>
        <mxCell id="HKDqVsgVxOON_ts5jWsu-30" value="" style="sketch=0;aspect=fixed;pointerEvents=1;shadow=0;dashed=0;html=1;strokeColor=none;labelPosition=center;verticalLabelPosition=bottom;verticalAlign=top;align=center;fillColor=#00188D;shape=mxgraph.mscae.enterprise.server_generic" vertex="1" parent="HKDqVsgVxOON_ts5jWsu-1">
          <mxGeometry x="141.5" y="965" width="24" height="50" as="geometry" />
        </mxCell>
        <mxCell id="HKDqVsgVxOON_ts5jWsu-32" value="应用服务器1" style="rounded=1;whiteSpace=wrap;html=1;strokeColor=none;" vertex="1" parent="HKDqVsgVxOON_ts5jWsu-1">
          <mxGeometry x="50" y="955" width="78.5" height="20" as="geometry" />
        </mxCell>
        <mxCell id="HKDqVsgVxOON_ts5jWsu-33" value="应用服务器2" style="rounded=1;whiteSpace=wrap;html=1;strokeColor=none;" vertex="1" parent="HKDqVsgVxOON_ts5jWsu-1">
          <mxGeometry x="178.5" y="955" width="78.5" height="20" as="geometry" />
        </mxCell>
        <mxCell id="HKDqVsgVxOON_ts5jWsu-34" value="应用服务器3" style="rounded=1;whiteSpace=wrap;html=1;strokeColor=none;" vertex="1" parent="HKDqVsgVxOON_ts5jWsu-1">
          <mxGeometry x="114.25" y="1020" width="78.5" height="20" as="geometry" />
        </mxCell>
        <mxCell id="HKDqVsgVxOON_ts5jWsu-38" value="门户网站后端服务器集群" style="rounded=1;whiteSpace=wrap;html=1;strokeColor=none;" vertex="1" parent="HKDqVsgVxOON_ts5jWsu-1">
          <mxGeometry x="90" y="840" width="135.75" height="20" as="geometry" />
        </mxCell>
        <mxCell id="HKDqVsgVxOON_ts5jWsu-39" value="" style="ellipse;whiteSpace=wrap;html=1;strokeColor=default;" vertex="1" parent="HKDqVsgVxOON_ts5jWsu-1">
          <mxGeometry x="567.5" y="890" width="220" height="160" as="geometry" />
        </mxCell>
        <mxCell id="HKDqVsgVxOON_ts5jWsu-40" value="" style="sketch=0;aspect=fixed;pointerEvents=1;shadow=0;dashed=0;html=1;strokeColor=none;labelPosition=center;verticalLabelPosition=bottom;verticalAlign=top;align=center;fillColor=#00188D;shape=mxgraph.mscae.enterprise.server_generic" vertex="1" parent="HKDqVsgVxOON_ts5jWsu-1">
          <mxGeometry x="613" y="925" width="24" height="50" as="geometry" />
        </mxCell>
        <mxCell id="HKDqVsgVxOON_ts5jWsu-41" value="" style="sketch=0;aspect=fixed;pointerEvents=1;shadow=0;dashed=0;html=1;strokeColor=none;labelPosition=center;verticalLabelPosition=bottom;verticalAlign=top;align=center;fillColor=#00188D;shape=mxgraph.mscae.enterprise.server_generic" vertex="1" parent="HKDqVsgVxOON_ts5jWsu-1">
          <mxGeometry x="720" y="925" width="24" height="50" as="geometry" />
        </mxCell>
        <mxCell id="HKDqVsgVxOON_ts5jWsu-42" value="机场通APP后端服务器集群" style="rounded=1;whiteSpace=wrap;html=1;strokeColor=none;" vertex="1" parent="HKDqVsgVxOON_ts5jWsu-1">
          <mxGeometry x="600" y="860" width="155" height="20" as="geometry" />
        </mxCell>
        <mxCell id="HKDqVsgVxOON_ts5jWsu-43" value="应用服务器1" style="rounded=1;whiteSpace=wrap;html=1;strokeColor=none;" vertex="1" parent="HKDqVsgVxOON_ts5jWsu-1">
          <mxGeometry x="585.75" y="995" width="78.5" height="20" as="geometry" />
        </mxCell>
        <mxCell id="HKDqVsgVxOON_ts5jWsu-44" value="应用服务器2" style="rounded=1;whiteSpace=wrap;html=1;strokeColor=none;" vertex="1" parent="HKDqVsgVxOON_ts5jWsu-1">
          <mxGeometry x="690" y="995" width="78.5" height="20" as="geometry" />
        </mxCell>
        <mxCell id="HKDqVsgVxOON_ts5jWsu-45" value="" style="ellipse;whiteSpace=wrap;html=1;strokeColor=default;" vertex="1" parent="HKDqVsgVxOON_ts5jWsu-1">
          <mxGeometry x="337.5" y="895" width="180" height="120" as="geometry" />
        </mxCell>
        <mxCell id="HKDqVsgVxOON_ts5jWsu-46" value="" style="sketch=0;aspect=fixed;pointerEvents=1;shadow=0;dashed=0;html=1;strokeColor=none;labelPosition=center;verticalLabelPosition=bottom;verticalAlign=top;align=center;fillColor=#00188D;shape=mxgraph.mscae.enterprise.server_generic" vertex="1" parent="HKDqVsgVxOON_ts5jWsu-1">
          <mxGeometry x="414" y="915" width="24" height="50" as="geometry" />
        </mxCell>
        <mxCell id="HKDqVsgVxOON_ts5jWsu-47" value="后台服务器" style="rounded=1;whiteSpace=wrap;html=1;strokeColor=none;" vertex="1" parent="HKDqVsgVxOON_ts5jWsu-1">
          <mxGeometry x="386.75" y="980" width="78.5" height="20" as="geometry" />
        </mxCell>
        <mxCell id="HKDqVsgVxOON_ts5jWsu-48" value="后台管理应用服务器" style="rounded=1;whiteSpace=wrap;html=1;strokeColor=none;" vertex="1" parent="HKDqVsgVxOON_ts5jWsu-1">
          <mxGeometry x="350" y="860" width="155" height="20" as="geometry" />
        </mxCell>
        <mxCell id="HKDqVsgVxOON_ts5jWsu-49" value="" style="ellipse;whiteSpace=wrap;html=1;strokeColor=default;" vertex="1" parent="HKDqVsgVxOON_ts5jWsu-1">
          <mxGeometry x="827" y="900" width="170" height="120" as="geometry" />
        </mxCell>
        <mxCell id="HKDqVsgVxOON_ts5jWsu-50" value="" style="sketch=0;aspect=fixed;pointerEvents=1;shadow=0;dashed=0;html=1;strokeColor=none;labelPosition=center;verticalLabelPosition=bottom;verticalAlign=top;align=center;fillColor=#00188D;shape=mxgraph.mscae.enterprise.server_generic" vertex="1" parent="HKDqVsgVxOON_ts5jWsu-1">
          <mxGeometry x="900" y="925" width="24" height="50" as="geometry" />
        </mxCell>
        <mxCell id="HKDqVsgVxOON_ts5jWsu-52" value="航班动态ETL服务器" style="rounded=1;whiteSpace=wrap;html=1;strokeColor=none;" vertex="1" parent="HKDqVsgVxOON_ts5jWsu-1">
          <mxGeometry x="820" y="860" width="155" height="20" as="geometry" />
        </mxCell>
        <mxCell id="HKDqVsgVxOON_ts5jWsu-53" value="ETL应用服务器" style="rounded=1;whiteSpace=wrap;html=1;strokeColor=none;" vertex="1" parent="HKDqVsgVxOON_ts5jWsu-1">
          <mxGeometry x="869.25" y="990" width="85.5" height="20" as="geometry" />
        </mxCell>
        <mxCell id="HKDqVsgVxOON_ts5jWsu-54" value="" style="ellipse;whiteSpace=wrap;html=1;strokeColor=default;" vertex="1" parent="HKDqVsgVxOON_ts5jWsu-1">
          <mxGeometry x="1030" y="900" width="170" height="120" as="geometry" />
        </mxCell>
        <mxCell id="HKDqVsgVxOON_ts5jWsu-56" value="" style="sketch=0;aspect=fixed;pointerEvents=1;shadow=0;dashed=0;html=1;strokeColor=none;labelPosition=center;verticalLabelPosition=bottom;verticalAlign=top;align=center;fillColor=#00188D;shape=mxgraph.mscae.enterprise.server_generic" vertex="1" parent="HKDqVsgVxOON_ts5jWsu-1">
          <mxGeometry x="1103" y="925" width="24" height="50" as="geometry" />
        </mxCell>
        <mxCell id="HKDqVsgVxOON_ts5jWsu-58" value="堡垒机服务" style="rounded=1;whiteSpace=wrap;html=1;strokeColor=none;" vertex="1" parent="HKDqVsgVxOON_ts5jWsu-1">
          <mxGeometry x="1030" y="860" width="155" height="20" as="geometry" />
        </mxCell>
        <mxCell id="HKDqVsgVxOON_ts5jWsu-59" value="堡垒机服务器" style="rounded=1;whiteSpace=wrap;html=1;strokeColor=none;" vertex="1" parent="HKDqVsgVxOON_ts5jWsu-1">
          <mxGeometry x="1068.75" y="990" width="92.5" height="20" as="geometry" />
        </mxCell>
        <mxCell id="HKDqVsgVxOON_ts5jWsu-61" value="" style="fontColor=#0066CC;verticalAlign=top;verticalLabelPosition=bottom;labelPosition=center;align=center;html=1;outlineConnect=0;fillColor=#CCCCCC;strokeColor=#6881B3;gradientColor=none;gradientDirection=north;strokeWidth=2;shape=mxgraph.networks.firewall;" vertex="1" parent="HKDqVsgVxOON_ts5jWsu-1">
          <mxGeometry x="230" y="1169" width="100" height="100" as="geometry" />
        </mxCell>
        <mxCell id="HKDqVsgVxOON_ts5jWsu-62" value="机场云公网防火墙" style="rounded=1;whiteSpace=wrap;html=1;strokeColor=none;" vertex="1" parent="HKDqVsgVxOON_ts5jWsu-1">
          <mxGeometry x="219.13" y="1269" width="120" height="30" as="geometry" />
        </mxCell>
        <mxCell id="HKDqVsgVxOON_ts5jWsu-64" value="" style="shape=flexArrow;endArrow=classic;html=1;rounded=0;" edge="1" parent="HKDqVsgVxOON_ts5jWsu-1">
          <mxGeometry width="50" height="50" relative="1" as="geometry">
            <mxPoint x="190" y="1090" as="sourcePoint" />
            <mxPoint x="250" y="1150" as="targetPoint" />
          </mxGeometry>
        </mxCell>
        <mxCell id="HKDqVsgVxOON_ts5jWsu-65" value="" style="shape=flexArrow;endArrow=classic;html=1;rounded=0;" edge="1" parent="HKDqVsgVxOON_ts5jWsu-1">
          <mxGeometry width="50" height="50" relative="1" as="geometry">
            <mxPoint x="380" y="1090" as="sourcePoint" />
            <mxPoint x="310" y="1150" as="targetPoint" />
          </mxGeometry>
        </mxCell>
        <mxCell id="HKDqVsgVxOON_ts5jWsu-66" value="" style="ellipse;whiteSpace=wrap;html=1;strokeColor=default;" vertex="1" parent="HKDqVsgVxOON_ts5jWsu-1">
          <mxGeometry x="192.75" y="1370" width="177.25" height="130" as="geometry" />
        </mxCell>
        <mxCell id="HKDqVsgVxOON_ts5jWsu-67" value="" style="sketch=0;aspect=fixed;pointerEvents=1;shadow=0;dashed=0;html=1;strokeColor=none;labelPosition=center;verticalLabelPosition=bottom;verticalAlign=top;align=center;fillColor=#00188D;shape=mxgraph.mscae.enterprise.database_server" vertex="1" parent="HKDqVsgVxOON_ts5jWsu-1">
          <mxGeometry x="263.38" y="1390" width="38.25" height="50.33" as="geometry" />
        </mxCell>
        <mxCell id="HKDqVsgVxOON_ts5jWsu-68" value="机场云Oracle数据库" style="rounded=1;whiteSpace=wrap;html=1;strokeColor=none;" vertex="1" parent="HKDqVsgVxOON_ts5jWsu-1">
          <mxGeometry x="227.5" y="1450" width="110" height="30" as="geometry" />
        </mxCell>
        <mxCell id="HKDqVsgVxOON_ts5jWsu-69" value="" style="shape=singleArrow;direction=south;whiteSpace=wrap;html=1;strokeColor=default;" vertex="1" parent="HKDqVsgVxOON_ts5jWsu-1">
          <mxGeometry x="258.25" y="1299" width="40" height="60" as="geometry" />
        </mxCell>
        <mxCell id="HKDqVsgVxOON_ts5jWsu-79" value="" style="shape=flexArrow;endArrow=classic;html=1;rounded=0;" edge="1" parent="HKDqVsgVxOON_ts5jWsu-1">
          <mxGeometry width="50" height="50" relative="1" as="geometry">
            <mxPoint x="680" y="1090" as="sourcePoint" />
            <mxPoint x="740" y="1150" as="targetPoint" />
          </mxGeometry>
        </mxCell>
        <mxCell id="HKDqVsgVxOON_ts5jWsu-80" value="" style="shape=flexArrow;endArrow=classic;html=1;rounded=0;" edge="1" parent="HKDqVsgVxOON_ts5jWsu-1">
          <mxGeometry width="50" height="50" relative="1" as="geometry">
            <mxPoint x="924" y="1090" as="sourcePoint" />
            <mxPoint x="854" y="1150" as="targetPoint" />
          </mxGeometry>
        </mxCell>
        <mxCell id="HKDqVsgVxOON_ts5jWsu-81" value="" style="ellipse;whiteSpace=wrap;html=1;strokeColor=default;" vertex="1" parent="HKDqVsgVxOON_ts5jWsu-1">
          <mxGeometry x="1220" y="900" width="149" height="110" as="geometry" />
        </mxCell>
        <mxCell id="HKDqVsgVxOON_ts5jWsu-82" value="" style="sketch=0;aspect=fixed;pointerEvents=1;shadow=0;dashed=0;html=1;strokeColor=none;labelPosition=center;verticalLabelPosition=bottom;verticalAlign=top;align=center;fillColor=#00188D;shape=mxgraph.mscae.enterprise.server_generic" vertex="1" parent="HKDqVsgVxOON_ts5jWsu-1">
          <mxGeometry x="1282.5" y="925" width="24" height="50" as="geometry" />
        </mxCell>
        <mxCell id="HKDqVsgVxOON_ts5jWsu-83" value="redis缓存" style="rounded=1;whiteSpace=wrap;html=1;strokeColor=none;" vertex="1" parent="HKDqVsgVxOON_ts5jWsu-1">
          <mxGeometry x="1254.5" y="980" width="80" height="21" as="geometry" />
        </mxCell>
        <mxCell id="HKDqVsgVxOON_ts5jWsu-86" value="" style="ellipse;whiteSpace=wrap;html=1;strokeColor=default;" vertex="1" parent="HKDqVsgVxOON_ts5jWsu-1">
          <mxGeometry x="720.25" y="1161" width="149" height="100" as="geometry" />
        </mxCell>
        <mxCell id="HKDqVsgVxOON_ts5jWsu-87" value="" style="sketch=0;aspect=fixed;pointerEvents=1;shadow=0;dashed=0;html=1;strokeColor=none;labelPosition=center;verticalLabelPosition=bottom;verticalAlign=top;align=center;fillColor=#00188D;shape=mxgraph.mscae.enterprise.database_server" vertex="1" parent="HKDqVsgVxOON_ts5jWsu-1">
          <mxGeometry x="775.75" y="1169" width="38" height="50" as="geometry" />
        </mxCell>
        <mxCell id="HKDqVsgVxOON_ts5jWsu-88" value="mysql数据库" style="rounded=1;whiteSpace=wrap;html=1;strokeColor=none;" vertex="1" parent="HKDqVsgVxOON_ts5jWsu-1">
          <mxGeometry x="754.75" y="1230" width="80" height="21" as="geometry" />
        </mxCell>
        <mxCell id="HKDqVsgVxOON_ts5jWsu-89" value="" style="sketch=0;aspect=fixed;pointerEvents=1;shadow=0;dashed=0;html=1;strokeColor=none;labelPosition=center;verticalLabelPosition=bottom;verticalAlign=top;align=center;fillColor=#00188D;shape=mxgraph.azure.user" vertex="1" parent="HKDqVsgVxOON_ts5jWsu-1">
          <mxGeometry x="1078.87" y="60" width="47" height="50" as="geometry" />
        </mxCell>
        <mxCell id="HKDqVsgVxOON_ts5jWsu-90" value="" style="shape=singleArrow;direction=south;whiteSpace=wrap;html=1;strokeColor=default;" vertex="1" parent="HKDqVsgVxOON_ts5jWsu-1">
          <mxGeometry x="1075.75" y="370" width="51.25" height="440" as="geometry" />
        </mxCell>
        <mxCell id="HKDqVsgVxOON_ts5jWsu-92" value="" style="sketch=0;aspect=fixed;pointerEvents=1;shadow=0;dashed=0;html=1;strokeColor=none;labelPosition=center;verticalLabelPosition=bottom;verticalAlign=top;align=center;fillColor=#00188D;shape=mxgraph.mscae.enterprise.firewall" vertex="1" parent="HKDqVsgVxOON_ts5jWsu-1">
          <mxGeometry x="1055.9199999999998" y="230" width="90.91" height="80" as="geometry" />
        </mxCell>
        <mxCell id="HKDqVsgVxOON_ts5jWsu-93" value="联通云网络防火墙" style="rounded=1;whiteSpace=wrap;html=1;strokeColor=none;" vertex="1" parent="HKDqVsgVxOON_ts5jWsu-1">
          <mxGeometry x="1049.3299999999997" y="320" width="104.09" height="30" as="geometry" />
        </mxCell>
        <mxCell id="HKDqVsgVxOON_ts5jWsu-95" value="运维/开发" style="rounded=1;whiteSpace=wrap;html=1;strokeColor=none;" vertex="1" parent="HKDqVsgVxOON_ts5jWsu-1">
          <mxGeometry x="1063.83" y="120" width="83" height="30" as="geometry" />
        </mxCell>
        <mxCell id="HKDqVsgVxOON_ts5jWsu-96" value="" style="shape=singleArrow;direction=south;whiteSpace=wrap;html=1;strokeColor=default;" vertex="1" parent="HKDqVsgVxOON_ts5jWsu-1">
          <mxGeometry x="1078.87" y="150" width="45" height="70" as="geometry" />
        </mxCell>
        <mxCell id="HKDqVsgVxOON_ts5jWsu-97" value="" style="sketch=0;aspect=fixed;pointerEvents=1;shadow=0;dashed=0;html=1;strokeColor=none;labelPosition=center;verticalLabelPosition=bottom;verticalAlign=top;align=center;fillColor=#00188D;shape=mxgraph.azure.user" vertex="1" parent="HKDqVsgVxOON_ts5jWsu-1">
          <mxGeometry x="566" y="60.5" width="47" height="50" as="geometry" />
        </mxCell>
        <mxCell id="HKDqVsgVxOON_ts5jWsu-98" value="机场运营人员" style="rounded=1;whiteSpace=wrap;html=1;strokeColor=none;" vertex="1" parent="HKDqVsgVxOON_ts5jWsu-1">
          <mxGeometry x="539.5" y="120" width="100" height="20" as="geometry" />
        </mxCell>
        <mxCell id="HKDqVsgVxOON_ts5jWsu-99" value="" style="shape=singleArrow;direction=south;whiteSpace=wrap;html=1;strokeColor=default;" vertex="1" parent="HKDqVsgVxOON_ts5jWsu-1">
          <mxGeometry x="567" y="150" width="45" height="120" as="geometry" />
        </mxCell>
        <mxCell id="HKDqVsgVxOON_ts5jWsu-100" value="" style="sketch=0;aspect=fixed;pointerEvents=1;shadow=0;dashed=0;html=1;strokeColor=none;labelPosition=center;verticalLabelPosition=bottom;verticalAlign=top;align=center;fillColor=#00188D;shape=mxgraph.mscae.enterprise.firewall" vertex="1" parent="HKDqVsgVxOON_ts5jWsu-1">
          <mxGeometry x="546.0899999999999" y="295" width="90.91" height="80" as="geometry" />
        </mxCell>
        <mxCell id="HKDqVsgVxOON_ts5jWsu-101" value="联通云网络防火墙" style="rounded=1;whiteSpace=wrap;html=1;strokeColor=none;" vertex="1" parent="HKDqVsgVxOON_ts5jWsu-1">
          <mxGeometry x="535.9599999999997" y="380" width="104.09" height="30" as="geometry" />
        </mxCell>
        <mxCell id="HKDqVsgVxOON_ts5jWsu-103" value="" style="shape=singleArrow;direction=south;whiteSpace=wrap;html=1;strokeColor=default;" vertex="1" parent="HKDqVsgVxOON_ts5jWsu-1">
          <mxGeometry x="564.53" y="450" width="45" height="150" as="geometry" />
        </mxCell>
        <mxCell id="HKDqVsgVxOON_ts5jWsu-104" value="" style="ellipse;whiteSpace=wrap;html=1;strokeColor=default;" vertex="1" parent="HKDqVsgVxOON_ts5jWsu-1">
          <mxGeometry x="517.5" y="625" width="139.05" height="100" as="geometry" />
        </mxCell>
        <mxCell id="HKDqVsgVxOON_ts5jWsu-105" value="" style="sketch=0;aspect=fixed;pointerEvents=1;shadow=0;dashed=0;html=1;strokeColor=none;labelPosition=center;verticalLabelPosition=bottom;verticalAlign=top;align=center;fillColor=#00188D;shape=mxgraph.mscae.enterprise.server_generic" vertex="1" parent="HKDqVsgVxOON_ts5jWsu-1">
          <mxGeometry x="576" y="640" width="24" height="50" as="geometry" />
        </mxCell>
        <mxCell id="HKDqVsgVxOON_ts5jWsu-106" value="防篡改服务器" style="rounded=1;whiteSpace=wrap;html=1;strokeColor=none;" vertex="1" parent="HKDqVsgVxOON_ts5jWsu-1">
          <mxGeometry x="549.47" y="690" width="80.05" height="20" as="geometry" />
        </mxCell>
        <mxCell id="HKDqVsgVxOON_ts5jWsu-107" value="" style="shape=flexArrow;endArrow=classic;html=1;rounded=0;entryX=0.349;entryY=-0.012;entryDx=0;entryDy=0;entryPerimeter=0;" edge="1" parent="HKDqVsgVxOON_ts5jWsu-1" target="HKDqVsgVxOON_ts5jWsu-25">
          <mxGeometry width="50" height="50" relative="1" as="geometry">
            <mxPoint x="570" y="740" as="sourcePoint" />
            <mxPoint x="480" y="820" as="targetPoint" />
          </mxGeometry>
        </mxCell>
        <mxCell id="HKDqVsgVxOON_ts5jWsu-111" value="redis缓存服务" style="rounded=1;whiteSpace=wrap;html=1;strokeColor=none;" vertex="1" parent="HKDqVsgVxOON_ts5jWsu-1">
          <mxGeometry x="1217" y="860" width="155" height="20" as="geometry" />
        </mxCell>
      </root>
    </mxGraphModel>
  </diagram>
  <diagram id="LN_K0VTYxrhv8u5BOsT2" name="Page-3">
    <mxGraphModel dx="1422" dy="762" grid="1" gridSize="10" guides="1" tooltips="1" connect="1" arrows="1" fold="1" page="1" pageScale="1" pageWidth="827" pageHeight="1169" math="0" shadow="0">
      <root>
        <mxCell id="Vp20h-t4PhwatNGmhIzU-0" />
        <mxCell id="Vp20h-t4PhwatNGmhIzU-1" parent="Vp20h-t4PhwatNGmhIzU-0" />
        <mxCell id="u-HMrT-mWXHWVVWRTC-M-1" value="" style="rounded=1;whiteSpace=wrap;html=1;strokeColor=default;" vertex="1" parent="Vp20h-t4PhwatNGmhIzU-1">
          <mxGeometry x="89.5" y="165" width="1011" height="1035" as="geometry" />
        </mxCell>
        <mxCell id="u-HMrT-mWXHWVVWRTC-M-3" value="" style="sketch=0;aspect=fixed;pointerEvents=1;shadow=0;dashed=0;html=1;strokeColor=none;labelPosition=center;verticalLabelPosition=bottom;verticalAlign=top;align=center;fillColor=#00188D;shape=mxgraph.azure.user" vertex="1" parent="Vp20h-t4PhwatNGmhIzU-1">
          <mxGeometry x="110" y="40" width="47" height="50" as="geometry" />
        </mxCell>
        <mxCell id="u-HMrT-mWXHWVVWRTC-M-4" value="公网" style="sketch=0;aspect=fixed;pointerEvents=1;shadow=0;dashed=0;html=1;strokeColor=none;labelPosition=center;verticalLabelPosition=bottom;verticalAlign=top;align=center;fillColor=#00188D;shape=mxgraph.mscae.enterprise.internet_hollow" vertex="1" parent="Vp20h-t4PhwatNGmhIzU-1">
          <mxGeometry x="250" y="49.5" width="50" height="31" as="geometry" />
        </mxCell>
        <mxCell id="u-HMrT-mWXHWVVWRTC-M-5" value="" style="fontColor=#0066CC;verticalAlign=top;verticalLabelPosition=bottom;labelPosition=center;align=center;html=1;outlineConnect=0;fillColor=#CCCCCC;strokeColor=#6881B3;gradientColor=none;gradientDirection=north;strokeWidth=2;shape=mxgraph.networks.firewall;" vertex="1" parent="Vp20h-t4PhwatNGmhIzU-1">
          <mxGeometry x="225" y="180" width="100" height="100" as="geometry" />
        </mxCell>
        <mxCell id="u-HMrT-mWXHWVVWRTC-M-6" value="" style="shape=singleArrow;whiteSpace=wrap;html=1;strokeColor=default;" vertex="1" parent="Vp20h-t4PhwatNGmhIzU-1">
          <mxGeometry x="170" y="50" width="70" height="40" as="geometry" />
        </mxCell>
        <mxCell id="u-HMrT-mWXHWVVWRTC-M-7" value="" style="shape=singleArrow;direction=south;whiteSpace=wrap;html=1;strokeColor=default;" vertex="1" parent="Vp20h-t4PhwatNGmhIzU-1">
          <mxGeometry x="260" y="100" width="30" height="60" as="geometry" />
        </mxCell>
        <mxCell id="u-HMrT-mWXHWVVWRTC-M-8" value="蓝盾防火墙" style="rounded=1;whiteSpace=wrap;html=1;strokeColor=none;" vertex="1" parent="Vp20h-t4PhwatNGmhIzU-1">
          <mxGeometry x="220" y="280" width="105" height="20" as="geometry" />
        </mxCell>
        <mxCell id="u-HMrT-mWXHWVVWRTC-M-9" value="" style="sketch=0;aspect=fixed;pointerEvents=1;shadow=0;dashed=0;html=1;strokeColor=none;labelPosition=center;verticalLabelPosition=bottom;verticalAlign=top;align=center;fillColor=#00188D;shape=mxgraph.azure.server_rack" vertex="1" parent="Vp20h-t4PhwatNGmhIzU-1">
          <mxGeometry x="237.5" y="340" width="70" height="70" as="geometry" />
        </mxCell>
        <mxCell id="u-HMrT-mWXHWVVWRTC-M-10" value="" style="shape=singleArrow;direction=south;whiteSpace=wrap;html=1;strokeColor=default;" vertex="1" parent="Vp20h-t4PhwatNGmhIzU-1">
          <mxGeometry x="257.5" y="300" width="30" height="40" as="geometry" />
        </mxCell>
        <mxCell id="u-HMrT-mWXHWVVWRTC-M-11" value="联通云防火墙/WAF" style="rounded=1;whiteSpace=wrap;html=1;strokeColor=none;" vertex="1" parent="Vp20h-t4PhwatNGmhIzU-1">
          <mxGeometry x="222.5" y="410" width="105" height="20" as="geometry" />
        </mxCell>
        <mxCell id="u-HMrT-mWXHWVVWRTC-M-12" value="" style="rounded=1;whiteSpace=wrap;html=1;strokeColor=default;" vertex="1" parent="Vp20h-t4PhwatNGmhIzU-1">
          <mxGeometry x="150" y="480" width="267" height="700" as="geometry" />
        </mxCell>
        <mxCell id="u-HMrT-mWXHWVVWRTC-M-13" value="" style="shape=singleArrow;direction=south;whiteSpace=wrap;html=1;strokeColor=default;" vertex="1" parent="Vp20h-t4PhwatNGmhIzU-1">
          <mxGeometry x="257.5" y="430" width="30" height="40" as="geometry" />
        </mxCell>
        <mxCell id="u-HMrT-mWXHWVVWRTC-M-16" value="" style="rounded=1;whiteSpace=wrap;html=1;strokeColor=default;" vertex="1" parent="Vp20h-t4PhwatNGmhIzU-1">
          <mxGeometry x="160" y="510" width="240" height="80" as="geometry" />
        </mxCell>
        <mxCell id="u-HMrT-mWXHWVVWRTC-M-17" value="" style="sketch=0;aspect=fixed;pointerEvents=1;shadow=0;dashed=0;html=1;strokeColor=none;labelPosition=center;verticalLabelPosition=bottom;verticalAlign=top;align=center;fillColor=#00188D;shape=mxgraph.mscae.enterprise.server_generic" vertex="1" parent="Vp20h-t4PhwatNGmhIzU-1">
          <mxGeometry x="218.3" y="520" width="19.2" height="40" as="geometry" />
        </mxCell>
        <mxCell id="u-HMrT-mWXHWVVWRTC-M-18" value="" style="sketch=0;aspect=fixed;pointerEvents=1;shadow=0;dashed=0;html=1;strokeColor=none;labelPosition=center;verticalLabelPosition=bottom;verticalAlign=top;align=center;fillColor=#00188D;shape=mxgraph.mscae.enterprise.server_generic" vertex="1" parent="Vp20h-t4PhwatNGmhIzU-1">
          <mxGeometry x="315.4" y="520" width="19.2" height="40" as="geometry" />
        </mxCell>
        <mxCell id="u-HMrT-mWXHWVVWRTC-M-19" value="负载均衡代理层" style="rounded=1;whiteSpace=wrap;html=1;strokeColor=none;" vertex="1" parent="Vp20h-t4PhwatNGmhIzU-1">
          <mxGeometry x="210" y="480" width="120" height="30" as="geometry" />
        </mxCell>
        <mxCell id="u-HMrT-mWXHWVVWRTC-M-20" value="nginx反向代理1" style="rounded=1;whiteSpace=wrap;html=1;strokeColor=none;" vertex="1" parent="Vp20h-t4PhwatNGmhIzU-1">
          <mxGeometry x="180" y="565" width="90" height="20" as="geometry" />
        </mxCell>
        <mxCell id="u-HMrT-mWXHWVVWRTC-M-21" value="nginx反向代理1" style="rounded=1;whiteSpace=wrap;html=1;strokeColor=none;" vertex="1" parent="Vp20h-t4PhwatNGmhIzU-1">
          <mxGeometry x="280" y="565" width="90" height="20" as="geometry" />
        </mxCell>
        <mxCell id="u-HMrT-mWXHWVVWRTC-M-22" value="" style="shape=singleArrow;direction=south;whiteSpace=wrap;html=1;strokeColor=default;" vertex="1" parent="Vp20h-t4PhwatNGmhIzU-1">
          <mxGeometry x="254" y="600" width="37" height="60" as="geometry" />
        </mxCell>
        <mxCell id="u-HMrT-mWXHWVVWRTC-M-23" value="" style="rounded=1;whiteSpace=wrap;html=1;strokeColor=default;" vertex="1" parent="Vp20h-t4PhwatNGmhIzU-1">
          <mxGeometry x="165" y="700" width="235" height="230" as="geometry" />
        </mxCell>
        <mxCell id="u-HMrT-mWXHWVVWRTC-M-24" value="后端服务层" style="rounded=1;whiteSpace=wrap;html=1;strokeColor=none;" vertex="1" parent="Vp20h-t4PhwatNGmhIzU-1">
          <mxGeometry x="222.5" y="670" width="100" height="20" as="geometry" />
        </mxCell>
        <mxCell id="u-HMrT-mWXHWVVWRTC-M-25" value="" style="sketch=0;aspect=fixed;pointerEvents=1;shadow=0;dashed=0;html=1;strokeColor=none;labelPosition=center;verticalLabelPosition=bottom;verticalAlign=top;align=center;fillColor=#00188D;shape=mxgraph.mscae.enterprise.server_generic" vertex="1" parent="Vp20h-t4PhwatNGmhIzU-1">
          <mxGeometry x="190.8" y="710" width="19.2" height="40" as="geometry" />
        </mxCell>
        <mxCell id="u-HMrT-mWXHWVVWRTC-M-26" value="" style="sketch=0;aspect=fixed;pointerEvents=1;shadow=0;dashed=0;html=1;strokeColor=none;labelPosition=center;verticalLabelPosition=bottom;verticalAlign=top;align=center;fillColor=#00188D;shape=mxgraph.mscae.enterprise.server_generic" vertex="1" parent="Vp20h-t4PhwatNGmhIzU-1">
          <mxGeometry x="272.9" y="710" width="19.2" height="40" as="geometry" />
        </mxCell>
        <mxCell id="u-HMrT-mWXHWVVWRTC-M-27" value="" style="sketch=0;aspect=fixed;pointerEvents=1;shadow=0;dashed=0;html=1;strokeColor=none;labelPosition=center;verticalLabelPosition=bottom;verticalAlign=top;align=center;fillColor=#00188D;shape=mxgraph.mscae.enterprise.server_generic" vertex="1" parent="Vp20h-t4PhwatNGmhIzU-1">
          <mxGeometry x="345.05" y="710" width="19.2" height="40" as="geometry" />
        </mxCell>
        <mxCell id="u-HMrT-mWXHWVVWRTC-M-28" value="" style="sketch=0;aspect=fixed;pointerEvents=1;shadow=0;dashed=0;html=1;strokeColor=none;labelPosition=center;verticalLabelPosition=bottom;verticalAlign=top;align=center;fillColor=#00188D;shape=mxgraph.mscae.enterprise.server_generic" vertex="1" parent="Vp20h-t4PhwatNGmhIzU-1">
          <mxGeometry x="218.3" y="810" width="19.2" height="40" as="geometry" />
        </mxCell>
        <mxCell id="u-HMrT-mWXHWVVWRTC-M-29" value="" style="sketch=0;aspect=fixed;pointerEvents=1;shadow=0;dashed=0;html=1;strokeColor=none;labelPosition=center;verticalLabelPosition=bottom;verticalAlign=top;align=center;fillColor=#00188D;shape=mxgraph.mscae.enterprise.server_generic" vertex="1" parent="Vp20h-t4PhwatNGmhIzU-1">
          <mxGeometry x="319.2" y="810" width="19.2" height="40" as="geometry" />
        </mxCell>
        <mxCell id="smGiwPpCJX3HWT3FdWmd-0" value="应用服务器1" style="rounded=1;whiteSpace=wrap;html=1;strokeColor=none;" vertex="1" parent="Vp20h-t4PhwatNGmhIzU-1">
          <mxGeometry x="165" y="760" width="78.5" height="20" as="geometry" />
        </mxCell>
        <mxCell id="smGiwPpCJX3HWT3FdWmd-1" value="应用服务器2" style="rounded=1;whiteSpace=wrap;html=1;strokeColor=none;" vertex="1" parent="Vp20h-t4PhwatNGmhIzU-1">
          <mxGeometry x="240.7" y="760" width="78.5" height="20" as="geometry" />
        </mxCell>
        <mxCell id="smGiwPpCJX3HWT3FdWmd-2" value="应用服务器3" style="rounded=1;whiteSpace=wrap;html=1;strokeColor=none;" vertex="1" parent="Vp20h-t4PhwatNGmhIzU-1">
          <mxGeometry x="315.4" y="760" width="78.5" height="20" as="geometry" />
        </mxCell>
        <mxCell id="smGiwPpCJX3HWT3FdWmd-3" value="机场同APP服务器1" style="rounded=1;whiteSpace=wrap;html=1;strokeColor=none;" vertex="1" parent="Vp20h-t4PhwatNGmhIzU-1">
          <mxGeometry x="185.75" y="870" width="78.5" height="20" as="geometry" />
        </mxCell>
        <mxCell id="smGiwPpCJX3HWT3FdWmd-4" value="机场同APP服务器2" style="rounded=1;whiteSpace=wrap;html=1;strokeColor=none;" vertex="1" parent="Vp20h-t4PhwatNGmhIzU-1">
          <mxGeometry x="287.5" y="870" width="78.5" height="20" as="geometry" />
        </mxCell>
        <mxCell id="qzP3D0nFW0iJxRA5DuLo-0" value="" style="shape=singleArrow;direction=south;whiteSpace=wrap;html=1;strokeColor=default;" vertex="1" parent="Vp20h-t4PhwatNGmhIzU-1">
          <mxGeometry x="254" y="940" width="37" height="90" as="geometry" />
        </mxCell>
        <mxCell id="qzP3D0nFW0iJxRA5DuLo-1" value="" style="rounded=1;whiteSpace=wrap;html=1;strokeColor=default;" vertex="1" parent="Vp20h-t4PhwatNGmhIzU-1">
          <mxGeometry x="165" y="1060" width="235" height="110" as="geometry" />
        </mxCell>
        <mxCell id="qzP3D0nFW0iJxRA5DuLo-4" value="数据库持久层" style="rounded=1;whiteSpace=wrap;html=1;strokeColor=none;" vertex="1" parent="Vp20h-t4PhwatNGmhIzU-1">
          <mxGeometry x="219.5" y="1040" width="111" height="20" as="geometry" />
        </mxCell>
        <mxCell id="qzP3D0nFW0iJxRA5DuLo-5" value="" style="sketch=0;aspect=fixed;pointerEvents=1;shadow=0;dashed=0;html=1;strokeColor=none;labelPosition=center;verticalLabelPosition=bottom;verticalAlign=top;align=center;fillColor=#00188D;shape=mxgraph.azure.user" vertex="1" parent="Vp20h-t4PhwatNGmhIzU-1">
          <mxGeometry x="746.25" y="40" width="47" height="50" as="geometry" />
        </mxCell>
        <mxCell id="qzP3D0nFW0iJxRA5DuLo-6" value="" style="sketch=0;aspect=fixed;pointerEvents=1;shadow=0;dashed=0;html=1;strokeColor=none;labelPosition=center;verticalLabelPosition=bottom;verticalAlign=top;align=center;fillColor=#00188D;shape=mxgraph.azure.user" vertex="1" parent="Vp20h-t4PhwatNGmhIzU-1">
          <mxGeometry x="919" y="40" width="47" height="50" as="geometry" />
        </mxCell>
        <mxCell id="qzP3D0nFW0iJxRA5DuLo-7" value="" style="shape=singleArrow;direction=south;whiteSpace=wrap;html=1;strokeColor=default;" vertex="1" parent="Vp20h-t4PhwatNGmhIzU-1">
          <mxGeometry x="754.75" y="110" width="30" height="50" as="geometry" />
        </mxCell>
        <mxCell id="qzP3D0nFW0iJxRA5DuLo-8" value="" style="shape=singleArrow;direction=south;whiteSpace=wrap;html=1;strokeColor=default;" vertex="1" parent="Vp20h-t4PhwatNGmhIzU-1">
          <mxGeometry x="930" y="110" width="30" height="50" as="geometry" />
        </mxCell>
        <mxCell id="qzP3D0nFW0iJxRA5DuLo-9" value="" style="sketch=0;aspect=fixed;pointerEvents=1;shadow=0;dashed=0;html=1;strokeColor=none;labelPosition=center;verticalLabelPosition=bottom;verticalAlign=top;align=center;fillColor=#00188D;shape=mxgraph.azure.server_rack" vertex="1" parent="Vp20h-t4PhwatNGmhIzU-1">
          <mxGeometry x="740" y="180" width="70" height="70" as="geometry" />
        </mxCell>
        <mxCell id="qzP3D0nFW0iJxRA5DuLo-10" value="" style="sketch=0;aspect=fixed;pointerEvents=1;shadow=0;dashed=0;html=1;strokeColor=none;labelPosition=center;verticalLabelPosition=bottom;verticalAlign=top;align=center;fillColor=#00188D;shape=mxgraph.azure.server_rack" vertex="1" parent="Vp20h-t4PhwatNGmhIzU-1">
          <mxGeometry x="910" y="180" width="70" height="70" as="geometry" />
        </mxCell>
        <mxCell id="qzP3D0nFW0iJxRA5DuLo-11" value="联通云防火墙/WAF" style="rounded=1;whiteSpace=wrap;html=1;strokeColor=none;" vertex="1" parent="Vp20h-t4PhwatNGmhIzU-1">
          <mxGeometry x="724.5" y="260" width="105" height="20" as="geometry" />
        </mxCell>
        <mxCell id="qzP3D0nFW0iJxRA5DuLo-12" value="联通云防火墙/WAF" style="rounded=1;whiteSpace=wrap;html=1;strokeColor=none;" vertex="1" parent="Vp20h-t4PhwatNGmhIzU-1">
          <mxGeometry x="890" y="260" width="105" height="20" as="geometry" />
        </mxCell>
        <mxCell id="qzP3D0nFW0iJxRA5DuLo-13" value="" style="rounded=1;whiteSpace=wrap;html=1;strokeColor=default;" vertex="1" parent="Vp20h-t4PhwatNGmhIzU-1">
          <mxGeometry x="478.7" y="700" width="140" height="310" as="geometry" />
        </mxCell>
        <mxCell id="qzP3D0nFW0iJxRA5DuLo-14" value="" style="rounded=1;whiteSpace=wrap;html=1;strokeColor=default;" vertex="1" parent="Vp20h-t4PhwatNGmhIzU-1">
          <mxGeometry x="500" y="870" width="100" height="120" as="geometry" />
        </mxCell>
        <mxCell id="qzP3D0nFW0iJxRA5DuLo-15" value="" style="sketch=0;aspect=fixed;pointerEvents=1;shadow=0;dashed=0;html=1;strokeColor=none;labelPosition=center;verticalLabelPosition=bottom;verticalAlign=top;align=center;fillColor=#00188D;shape=mxgraph.mscae.enterprise.server_generic" vertex="1" parent="Vp20h-t4PhwatNGmhIzU-1">
          <mxGeometry x="537.9999999999999" y="890" width="24" height="50" as="geometry" />
        </mxCell>
        <mxCell id="qzP3D0nFW0iJxRA5DuLo-16" value="ETL航班动态服务器" style="rounded=1;whiteSpace=wrap;html=1;strokeColor=none;" vertex="1" parent="Vp20h-t4PhwatNGmhIzU-1">
          <mxGeometry x="508.7" y="960" width="82.6" height="20" as="geometry" />
        </mxCell>
        <mxCell id="qzP3D0nFW0iJxRA5DuLo-17" value="" style="rounded=1;whiteSpace=wrap;html=1;strokeColor=default;" vertex="1" parent="Vp20h-t4PhwatNGmhIzU-1">
          <mxGeometry x="500" y="715" width="100" height="110" as="geometry" />
        </mxCell>
        <mxCell id="qzP3D0nFW0iJxRA5DuLo-18" value="" style="sketch=0;aspect=fixed;pointerEvents=1;shadow=0;dashed=0;html=1;strokeColor=none;labelPosition=center;verticalLabelPosition=bottom;verticalAlign=top;align=center;fillColor=#00188D;shape=mxgraph.mscae.enterprise.server_generic" vertex="1" parent="Vp20h-t4PhwatNGmhIzU-1">
          <mxGeometry x="536.7" y="730" width="24" height="50" as="geometry" />
        </mxCell>
        <mxCell id="qzP3D0nFW0iJxRA5DuLo-19" value="redis缓存服务" style="rounded=1;whiteSpace=wrap;html=1;strokeColor=none;" vertex="1" parent="Vp20h-t4PhwatNGmhIzU-1">
          <mxGeometry x="507.4" y="800" width="82.6" height="20" as="geometry" />
        </mxCell>
        <mxCell id="qzP3D0nFW0iJxRA5DuLo-22" value="" style="shape=singleArrow;direction=west;whiteSpace=wrap;html=1;strokeColor=default;" vertex="1" parent="Vp20h-t4PhwatNGmhIzU-1">
          <mxGeometry x="420" y="850" width="58.7" height="30" as="geometry" />
        </mxCell>
        <mxCell id="qzP3D0nFW0iJxRA5DuLo-23" value="" style="rounded=1;whiteSpace=wrap;html=1;strokeColor=default;" vertex="1" parent="Vp20h-t4PhwatNGmhIzU-1">
          <mxGeometry x="710" y="610" width="130" height="370" as="geometry" />
        </mxCell>
        <mxCell id="qzP3D0nFW0iJxRA5DuLo-40" value="" style="edgeStyle=orthogonalEdgeStyle;rounded=0;orthogonalLoop=1;jettySize=auto;html=1;" edge="1" parent="Vp20h-t4PhwatNGmhIzU-1" source="qzP3D0nFW0iJxRA5DuLo-24" target="qzP3D0nFW0iJxRA5DuLo-38">
          <mxGeometry relative="1" as="geometry" />
        </mxCell>
        <mxCell id="qzP3D0nFW0iJxRA5DuLo-24" value="" style="rounded=1;whiteSpace=wrap;html=1;strokeColor=default;" vertex="1" parent="Vp20h-t4PhwatNGmhIzU-1">
          <mxGeometry x="727" y="850" width="100" height="110" as="geometry" />
        </mxCell>
        <mxCell id="qzP3D0nFW0iJxRA5DuLo-25" value="" style="sketch=0;aspect=fixed;pointerEvents=1;shadow=0;dashed=0;html=1;strokeColor=none;labelPosition=center;verticalLabelPosition=bottom;verticalAlign=top;align=center;fillColor=#00188D;shape=mxgraph.mscae.enterprise.server_generic" vertex="1" parent="Vp20h-t4PhwatNGmhIzU-1">
          <mxGeometry x="766.8000000000001" y="865" width="19.2" height="40" as="geometry" />
        </mxCell>
        <mxCell id="qzP3D0nFW0iJxRA5DuLo-26" value="后台应用服务器" style="rounded=1;whiteSpace=wrap;html=1;strokeColor=none;" vertex="1" parent="Vp20h-t4PhwatNGmhIzU-1">
          <mxGeometry x="737.75" y="930" width="78.5" height="20" as="geometry" />
        </mxCell>
        <mxCell id="qzP3D0nFW0iJxRA5DuLo-27" style="edgeStyle=orthogonalEdgeStyle;rounded=0;orthogonalLoop=1;jettySize=auto;html=1;exitX=0.5;exitY=1;exitDx=0;exitDy=0;" edge="1" parent="Vp20h-t4PhwatNGmhIzU-1" source="u-HMrT-mWXHWVVWRTC-M-23" target="u-HMrT-mWXHWVVWRTC-M-23">
          <mxGeometry relative="1" as="geometry" />
        </mxCell>
        <mxCell id="qzP3D0nFW0iJxRA5DuLo-34" value="" style="shape=singleArrow;direction=south;whiteSpace=wrap;html=1;strokeColor=default;" vertex="1" parent="Vp20h-t4PhwatNGmhIzU-1">
          <mxGeometry x="760" y="300" width="30" height="290" as="geometry" />
        </mxCell>
        <mxCell id="qzP3D0nFW0iJxRA5DuLo-35" value="" style="rounded=1;whiteSpace=wrap;html=1;strokeColor=default;" vertex="1" parent="Vp20h-t4PhwatNGmhIzU-1">
          <mxGeometry x="727" y="650" width="100" height="110" as="geometry" />
        </mxCell>
        <mxCell id="qzP3D0nFW0iJxRA5DuLo-36" value="" style="sketch=0;aspect=fixed;pointerEvents=1;shadow=0;dashed=0;html=1;strokeColor=none;labelPosition=center;verticalLabelPosition=bottom;verticalAlign=top;align=center;fillColor=#00188D;shape=mxgraph.mscae.enterprise.server_generic" vertex="1" parent="Vp20h-t4PhwatNGmhIzU-1">
          <mxGeometry x="765.4000000000001" y="660" width="19.2" height="40" as="geometry" />
        </mxCell>
        <mxCell id="qzP3D0nFW0iJxRA5DuLo-37" value="后台应用服务器" style="rounded=1;whiteSpace=wrap;html=1;strokeColor=none;" vertex="1" parent="Vp20h-t4PhwatNGmhIzU-1">
          <mxGeometry x="737.75" y="730" width="78.5" height="20" as="geometry" />
        </mxCell>
        <mxCell id="qzP3D0nFW0iJxRA5DuLo-38" value="" style="shape=singleArrow;direction=south;whiteSpace=wrap;html=1;strokeColor=default;" vertex="1" parent="Vp20h-t4PhwatNGmhIzU-1">
          <mxGeometry x="760" y="765" width="30" height="60" as="geometry" />
        </mxCell>
        <mxCell id="qzP3D0nFW0iJxRA5DuLo-39" value="后台管理服务" style="rounded=1;whiteSpace=wrap;html=1;strokeColor=none;" vertex="1" parent="Vp20h-t4PhwatNGmhIzU-1">
          <mxGeometry x="737.75" y="830" width="78.5" height="20" as="geometry" />
        </mxCell>
        <mxCell id="qzP3D0nFW0iJxRA5DuLo-41" value="防篡改服务" style="rounded=1;whiteSpace=wrap;html=1;strokeColor=none;" vertex="1" parent="Vp20h-t4PhwatNGmhIzU-1">
          <mxGeometry x="735.75" y="620" width="78.5" height="20" as="geometry" />
        </mxCell>
        <mxCell id="qzP3D0nFW0iJxRA5DuLo-45" value="" style="rounded=1;whiteSpace=wrap;html=1;strokeColor=default;" vertex="1" parent="Vp20h-t4PhwatNGmhIzU-1">
          <mxGeometry x="880" y="610" width="150" height="170" as="geometry" />
        </mxCell>
        <mxCell id="qzP3D0nFW0iJxRA5DuLo-46" value="" style="shape=singleArrow;direction=south;whiteSpace=wrap;html=1;strokeColor=default;" vertex="1" parent="Vp20h-t4PhwatNGmhIzU-1">
          <mxGeometry x="936" y="300" width="30" height="290" as="geometry" />
        </mxCell>
        <mxCell id="qzP3D0nFW0iJxRA5DuLo-49" value="堡垒机服务" style="rounded=1;whiteSpace=wrap;html=1;strokeColor=none;" vertex="1" parent="Vp20h-t4PhwatNGmhIzU-1">
          <mxGeometry x="915.75" y="620" width="78.5" height="20" as="geometry" />
        </mxCell>
        <mxCell id="qzP3D0nFW0iJxRA5DuLo-50" value="" style="rounded=1;whiteSpace=wrap;html=1;strokeColor=default;" vertex="1" parent="Vp20h-t4PhwatNGmhIzU-1">
          <mxGeometry x="905" y="640" width="100" height="110" as="geometry" />
        </mxCell>
        <mxCell id="qzP3D0nFW0iJxRA5DuLo-52" value="" style="sketch=0;aspect=fixed;pointerEvents=1;shadow=0;dashed=0;html=1;strokeColor=none;labelPosition=center;verticalLabelPosition=bottom;verticalAlign=top;align=center;fillColor=#00188D;shape=mxgraph.mscae.enterprise.server_generic" vertex="1" parent="Vp20h-t4PhwatNGmhIzU-1">
          <mxGeometry x="946.8" y="660" width="19.2" height="40" as="geometry" />
        </mxCell>
        <mxCell id="qzP3D0nFW0iJxRA5DuLo-55" value="堡垒机服务器" style="rounded=1;whiteSpace=wrap;html=1;strokeColor=none;" vertex="1" parent="Vp20h-t4PhwatNGmhIzU-1">
          <mxGeometry x="919" y="720" width="78.5" height="20" as="geometry" />
        </mxCell>
        <mxCell id="qzP3D0nFW0iJxRA5DuLo-58" value="用户" style="rounded=1;whiteSpace=wrap;html=1;strokeColor=none;" vertex="1" parent="Vp20h-t4PhwatNGmhIzU-1">
          <mxGeometry x="114" y="100" width="36" height="20" as="geometry" />
        </mxCell>
        <mxCell id="qzP3D0nFW0iJxRA5DuLo-59" value="机场运营人员" style="rounded=1;whiteSpace=wrap;html=1;strokeColor=none;" vertex="1" parent="Vp20h-t4PhwatNGmhIzU-1">
          <mxGeometry x="730.25" y="90" width="86" height="20" as="geometry" />
        </mxCell>
        <mxCell id="qzP3D0nFW0iJxRA5DuLo-61" value="运维/开发" style="rounded=1;whiteSpace=wrap;html=1;strokeColor=none;" vertex="1" parent="Vp20h-t4PhwatNGmhIzU-1">
          <mxGeometry x="902" y="90" width="86" height="20" as="geometry" />
        </mxCell>
        <mxCell id="qzP3D0nFW0iJxRA5DuLo-67" value="" style="shape=flexArrow;endArrow=classic;html=1;rounded=0;exitX=0.938;exitY=0.194;exitDx=0;exitDy=0;exitPerimeter=0;entryX=0.077;entryY=0.757;entryDx=0;entryDy=0;entryPerimeter=0;" edge="1" parent="Vp20h-t4PhwatNGmhIzU-1" source="qzP3D0nFW0iJxRA5DuLo-13" target="qzP3D0nFW0iJxRA5DuLo-23">
          <mxGeometry width="50" height="50" relative="1" as="geometry">
            <mxPoint x="640" y="940" as="sourcePoint" />
            <mxPoint x="690" y="890" as="targetPoint" />
          </mxGeometry>
        </mxCell>
        <mxCell id="qzP3D0nFW0iJxRA5DuLo-68" value="" style="shape=flexArrow;endArrow=classic;html=1;rounded=0;entryX=0.957;entryY=0.3;entryDx=0;entryDy=0;entryPerimeter=0;" edge="1" parent="Vp20h-t4PhwatNGmhIzU-1" target="qzP3D0nFW0iJxRA5DuLo-1">
          <mxGeometry width="50" height="50" relative="1" as="geometry">
            <mxPoint x="500" y="991" as="sourcePoint" />
            <mxPoint x="380" y="1090" as="targetPoint" />
          </mxGeometry>
        </mxCell>
        <mxCell id="qzP3D0nFW0iJxRA5DuLo-72" value="" style="ellipse;whiteSpace=wrap;html=1;strokeColor=default;" vertex="1" parent="Vp20h-t4PhwatNGmhIzU-1">
          <mxGeometry x="172" y="1070" width="108" height="90" as="geometry" />
        </mxCell>
        <mxCell id="qzP3D0nFW0iJxRA5DuLo-74" value="" style="ellipse;whiteSpace=wrap;html=1;strokeColor=default;" vertex="1" parent="Vp20h-t4PhwatNGmhIzU-1">
          <mxGeometry x="290" y="1070" width="100" height="90" as="geometry" />
        </mxCell>
        <mxCell id="qzP3D0nFW0iJxRA5DuLo-75" value="" style="sketch=0;aspect=fixed;pointerEvents=1;shadow=0;dashed=0;html=1;strokeColor=none;labelPosition=center;verticalLabelPosition=bottom;verticalAlign=top;align=center;fillColor=#00188D;shape=mxgraph.mscae.enterprise.server_generic" vertex="1" parent="Vp20h-t4PhwatNGmhIzU-1">
          <mxGeometry x="219.5" y="1080" width="19.2" height="40" as="geometry" />
        </mxCell>
        <mxCell id="qzP3D0nFW0iJxRA5DuLo-76" value="Oracle数据库" style="rounded=1;whiteSpace=wrap;html=1;strokeColor=none;" vertex="1" parent="Vp20h-t4PhwatNGmhIzU-1">
          <mxGeometry x="185.75" y="1125" width="80.5" height="20" as="geometry" />
        </mxCell>
        <mxCell id="qzP3D0nFW0iJxRA5DuLo-79" value="" style="sketch=0;aspect=fixed;pointerEvents=1;shadow=0;dashed=0;html=1;strokeColor=none;labelPosition=center;verticalLabelPosition=bottom;verticalAlign=top;align=center;fillColor=#00188D;shape=mxgraph.mscae.enterprise.server_generic" vertex="1" parent="Vp20h-t4PhwatNGmhIzU-1">
          <mxGeometry x="330.49999999999994" y="1080" width="19.2" height="40" as="geometry" />
        </mxCell>
        <mxCell id="qzP3D0nFW0iJxRA5DuLo-81" value="Mysql数据库" style="rounded=1;whiteSpace=wrap;html=1;strokeColor=none;" vertex="1" parent="Vp20h-t4PhwatNGmhIzU-1">
          <mxGeometry x="302.59999999999997" y="1125" width="74.8" height="20" as="geometry" />
        </mxCell>
      </root>
    </mxGraphModel>
  </diagram>
</mxfile>
